%TF.GenerationSoftware,KiCad,Pcbnew,(5.1.8)-1*%
%TF.CreationDate,2020-11-22T17:19:48-05:00*%
%TF.ProjectId,macro_keyboard_pcb,6d616372-6f5f-46b6-9579-626f6172645f,rev?*%
%TF.SameCoordinates,Original*%
%TF.FileFunction,Legend,Bot*%
%TF.FilePolarity,Positive*%
%FSLAX46Y46*%
G04 Gerber Fmt 4.6, Leading zero omitted, Abs format (unit mm)*
G04 Created by KiCad (PCBNEW (5.1.8)-1) date 2020-11-22 17:19:48*
%MOMM*%
%LPD*%
G01*
G04 APERTURE LIST*
%ADD10C,0.120000*%
%ADD11C,0.150000*%
G04 APERTURE END LIST*
D10*
%TO.C,D25*%
X127206250Y-168937500D02*
X127206250Y-165037500D01*
X125206250Y-168937500D02*
X125206250Y-165037500D01*
X127206250Y-168937500D02*
X125206250Y-168937500D01*
%TO.C,D24*%
X127206250Y-149887500D02*
X127206250Y-145987500D01*
X125206250Y-149887500D02*
X125206250Y-145987500D01*
X127206250Y-149887500D02*
X125206250Y-149887500D01*
%TO.C,D23*%
X127206250Y-130837500D02*
X127206250Y-126937500D01*
X125206250Y-130837500D02*
X125206250Y-126937500D01*
X127206250Y-130837500D02*
X125206250Y-130837500D01*
%TO.C,D22*%
X127206250Y-111787500D02*
X127206250Y-107887500D01*
X125206250Y-111787500D02*
X125206250Y-107887500D01*
X127206250Y-111787500D02*
X125206250Y-111787500D01*
%TO.C,D21*%
X127206250Y-92737500D02*
X127206250Y-88837500D01*
X125206250Y-92737500D02*
X125206250Y-88837500D01*
X127206250Y-92737500D02*
X125206250Y-92737500D01*
%TO.C,D20*%
X108156250Y-168937500D02*
X108156250Y-165037500D01*
X106156250Y-168937500D02*
X106156250Y-165037500D01*
X108156250Y-168937500D02*
X106156250Y-168937500D01*
%TO.C,D19*%
X108156250Y-149887500D02*
X108156250Y-145987500D01*
X106156250Y-149887500D02*
X106156250Y-145987500D01*
X108156250Y-149887500D02*
X106156250Y-149887500D01*
%TO.C,D18*%
X108156250Y-130837500D02*
X108156250Y-126937500D01*
X106156250Y-130837500D02*
X106156250Y-126937500D01*
X108156250Y-130837500D02*
X106156250Y-130837500D01*
%TO.C,D17*%
X108156250Y-111787500D02*
X108156250Y-107887500D01*
X106156250Y-111787500D02*
X106156250Y-107887500D01*
X108156250Y-111787500D02*
X106156250Y-111787500D01*
%TO.C,D16*%
X108156250Y-92737500D02*
X108156250Y-88837500D01*
X106156250Y-92737500D02*
X106156250Y-88837500D01*
X108156250Y-92737500D02*
X106156250Y-92737500D01*
%TO.C,D15*%
X89106250Y-168937500D02*
X89106250Y-165037500D01*
X87106250Y-168937500D02*
X87106250Y-165037500D01*
X89106250Y-168937500D02*
X87106250Y-168937500D01*
%TO.C,D14*%
X89106250Y-149887500D02*
X89106250Y-145987500D01*
X87106250Y-149887500D02*
X87106250Y-145987500D01*
X89106250Y-149887500D02*
X87106250Y-149887500D01*
%TO.C,D13*%
X89106250Y-130837500D02*
X89106250Y-126937500D01*
X87106250Y-130837500D02*
X87106250Y-126937500D01*
X89106250Y-130837500D02*
X87106250Y-130837500D01*
%TO.C,D12*%
X89106250Y-111787500D02*
X89106250Y-107887500D01*
X87106250Y-111787500D02*
X87106250Y-107887500D01*
X89106250Y-111787500D02*
X87106250Y-111787500D01*
%TO.C,D11*%
X89106250Y-92737500D02*
X89106250Y-88837500D01*
X87106250Y-92737500D02*
X87106250Y-88837500D01*
X89106250Y-92737500D02*
X87106250Y-92737500D01*
%TO.C,D10*%
X70056250Y-168937500D02*
X70056250Y-165037500D01*
X68056250Y-168937500D02*
X68056250Y-165037500D01*
X70056250Y-168937500D02*
X68056250Y-168937500D01*
%TO.C,D9*%
X70056250Y-149887500D02*
X70056250Y-145987500D01*
X68056250Y-149887500D02*
X68056250Y-145987500D01*
X70056250Y-149887500D02*
X68056250Y-149887500D01*
%TO.C,D8*%
X70056250Y-130837500D02*
X70056250Y-126937500D01*
X68056250Y-130837500D02*
X68056250Y-126937500D01*
X70056250Y-130837500D02*
X68056250Y-130837500D01*
%TO.C,D7*%
X70056250Y-111787500D02*
X70056250Y-107887500D01*
X68056250Y-111787500D02*
X68056250Y-107887500D01*
X70056250Y-111787500D02*
X68056250Y-111787500D01*
%TO.C,D6*%
X70056250Y-92737500D02*
X70056250Y-88837500D01*
X68056250Y-92737500D02*
X68056250Y-88837500D01*
X70056250Y-92737500D02*
X68056250Y-92737500D01*
%TO.C,D5*%
X51006250Y-168937500D02*
X51006250Y-165037500D01*
X49006250Y-168937500D02*
X49006250Y-165037500D01*
X51006250Y-168937500D02*
X49006250Y-168937500D01*
%TO.C,D4*%
X51006250Y-149887500D02*
X51006250Y-145987500D01*
X49006250Y-149887500D02*
X49006250Y-145987500D01*
X51006250Y-149887500D02*
X49006250Y-149887500D01*
%TO.C,D3*%
X51006250Y-130837500D02*
X51006250Y-126937500D01*
X49006250Y-130837500D02*
X49006250Y-126937500D01*
X51006250Y-130837500D02*
X49006250Y-130837500D01*
%TO.C,D2*%
X51006250Y-111787500D02*
X51006250Y-107887500D01*
X49006250Y-111787500D02*
X49006250Y-107887500D01*
X51006250Y-111787500D02*
X49006250Y-111787500D01*
%TO.C,D1*%
X51006250Y-92737500D02*
X51006250Y-88837500D01*
X49006250Y-92737500D02*
X49006250Y-88837500D01*
X51006250Y-92737500D02*
X49006250Y-92737500D01*
D11*
%TO.C,U1*%
X69215000Y-77946250D02*
X51435000Y-77946250D01*
X51435000Y-77946250D02*
X51435000Y-47466250D01*
X51435000Y-47466250D02*
X56515000Y-47466250D01*
X56515000Y-47466250D02*
X56515000Y-44926250D01*
X56515000Y-44926250D02*
X64135000Y-44926250D01*
X64135000Y-44926250D02*
X64135000Y-47466250D01*
X64135000Y-47466250D02*
X69215000Y-47466250D01*
X69215000Y-47466250D02*
X69215000Y-77946250D01*
D10*
%TO.C,C1*%
X71153750Y-55708767D02*
X71153750Y-55416233D01*
X70133750Y-55708767D02*
X70133750Y-55416233D01*
%TO.C,D25*%
D11*
X128658630Y-165473214D02*
X127658630Y-165473214D01*
X127658630Y-165711309D01*
X127706250Y-165854166D01*
X127801488Y-165949404D01*
X127896726Y-165997023D01*
X128087202Y-166044642D01*
X128230059Y-166044642D01*
X128420535Y-165997023D01*
X128515773Y-165949404D01*
X128611011Y-165854166D01*
X128658630Y-165711309D01*
X128658630Y-165473214D01*
X127753869Y-166425595D02*
X127706250Y-166473214D01*
X127658630Y-166568452D01*
X127658630Y-166806547D01*
X127706250Y-166901785D01*
X127753869Y-166949404D01*
X127849107Y-166997023D01*
X127944345Y-166997023D01*
X128087202Y-166949404D01*
X128658630Y-166377976D01*
X128658630Y-166997023D01*
X127658630Y-167901785D02*
X127658630Y-167425595D01*
X128134821Y-167377976D01*
X128087202Y-167425595D01*
X128039583Y-167520833D01*
X128039583Y-167758928D01*
X128087202Y-167854166D01*
X128134821Y-167901785D01*
X128230059Y-167949404D01*
X128468154Y-167949404D01*
X128563392Y-167901785D01*
X128611011Y-167854166D01*
X128658630Y-167758928D01*
X128658630Y-167520833D01*
X128611011Y-167425595D01*
X128563392Y-167377976D01*
%TO.C,D24*%
X128658630Y-146423214D02*
X127658630Y-146423214D01*
X127658630Y-146661309D01*
X127706250Y-146804166D01*
X127801488Y-146899404D01*
X127896726Y-146947023D01*
X128087202Y-146994642D01*
X128230059Y-146994642D01*
X128420535Y-146947023D01*
X128515773Y-146899404D01*
X128611011Y-146804166D01*
X128658630Y-146661309D01*
X128658630Y-146423214D01*
X127753869Y-147375595D02*
X127706250Y-147423214D01*
X127658630Y-147518452D01*
X127658630Y-147756547D01*
X127706250Y-147851785D01*
X127753869Y-147899404D01*
X127849107Y-147947023D01*
X127944345Y-147947023D01*
X128087202Y-147899404D01*
X128658630Y-147327976D01*
X128658630Y-147947023D01*
X127991964Y-148804166D02*
X128658630Y-148804166D01*
X127611011Y-148566071D02*
X128325297Y-148327976D01*
X128325297Y-148947023D01*
%TO.C,D23*%
X128658630Y-127373214D02*
X127658630Y-127373214D01*
X127658630Y-127611309D01*
X127706250Y-127754166D01*
X127801488Y-127849404D01*
X127896726Y-127897023D01*
X128087202Y-127944642D01*
X128230059Y-127944642D01*
X128420535Y-127897023D01*
X128515773Y-127849404D01*
X128611011Y-127754166D01*
X128658630Y-127611309D01*
X128658630Y-127373214D01*
X127753869Y-128325595D02*
X127706250Y-128373214D01*
X127658630Y-128468452D01*
X127658630Y-128706547D01*
X127706250Y-128801785D01*
X127753869Y-128849404D01*
X127849107Y-128897023D01*
X127944345Y-128897023D01*
X128087202Y-128849404D01*
X128658630Y-128277976D01*
X128658630Y-128897023D01*
X127658630Y-129230357D02*
X127658630Y-129849404D01*
X128039583Y-129516071D01*
X128039583Y-129658928D01*
X128087202Y-129754166D01*
X128134821Y-129801785D01*
X128230059Y-129849404D01*
X128468154Y-129849404D01*
X128563392Y-129801785D01*
X128611011Y-129754166D01*
X128658630Y-129658928D01*
X128658630Y-129373214D01*
X128611011Y-129277976D01*
X128563392Y-129230357D01*
%TO.C,D22*%
X128658630Y-108323214D02*
X127658630Y-108323214D01*
X127658630Y-108561309D01*
X127706250Y-108704166D01*
X127801488Y-108799404D01*
X127896726Y-108847023D01*
X128087202Y-108894642D01*
X128230059Y-108894642D01*
X128420535Y-108847023D01*
X128515773Y-108799404D01*
X128611011Y-108704166D01*
X128658630Y-108561309D01*
X128658630Y-108323214D01*
X127753869Y-109275595D02*
X127706250Y-109323214D01*
X127658630Y-109418452D01*
X127658630Y-109656547D01*
X127706250Y-109751785D01*
X127753869Y-109799404D01*
X127849107Y-109847023D01*
X127944345Y-109847023D01*
X128087202Y-109799404D01*
X128658630Y-109227976D01*
X128658630Y-109847023D01*
X127753869Y-110227976D02*
X127706250Y-110275595D01*
X127658630Y-110370833D01*
X127658630Y-110608928D01*
X127706250Y-110704166D01*
X127753869Y-110751785D01*
X127849107Y-110799404D01*
X127944345Y-110799404D01*
X128087202Y-110751785D01*
X128658630Y-110180357D01*
X128658630Y-110799404D01*
%TO.C,D21*%
X128658630Y-89273214D02*
X127658630Y-89273214D01*
X127658630Y-89511309D01*
X127706250Y-89654166D01*
X127801488Y-89749404D01*
X127896726Y-89797023D01*
X128087202Y-89844642D01*
X128230059Y-89844642D01*
X128420535Y-89797023D01*
X128515773Y-89749404D01*
X128611011Y-89654166D01*
X128658630Y-89511309D01*
X128658630Y-89273214D01*
X127753869Y-90225595D02*
X127706250Y-90273214D01*
X127658630Y-90368452D01*
X127658630Y-90606547D01*
X127706250Y-90701785D01*
X127753869Y-90749404D01*
X127849107Y-90797023D01*
X127944345Y-90797023D01*
X128087202Y-90749404D01*
X128658630Y-90177976D01*
X128658630Y-90797023D01*
X128658630Y-91749404D02*
X128658630Y-91177976D01*
X128658630Y-91463690D02*
X127658630Y-91463690D01*
X127801488Y-91368452D01*
X127896726Y-91273214D01*
X127944345Y-91177976D01*
%TO.C,D20*%
X109608630Y-165473214D02*
X108608630Y-165473214D01*
X108608630Y-165711309D01*
X108656250Y-165854166D01*
X108751488Y-165949404D01*
X108846726Y-165997023D01*
X109037202Y-166044642D01*
X109180059Y-166044642D01*
X109370535Y-165997023D01*
X109465773Y-165949404D01*
X109561011Y-165854166D01*
X109608630Y-165711309D01*
X109608630Y-165473214D01*
X108703869Y-166425595D02*
X108656250Y-166473214D01*
X108608630Y-166568452D01*
X108608630Y-166806547D01*
X108656250Y-166901785D01*
X108703869Y-166949404D01*
X108799107Y-166997023D01*
X108894345Y-166997023D01*
X109037202Y-166949404D01*
X109608630Y-166377976D01*
X109608630Y-166997023D01*
X108608630Y-167616071D02*
X108608630Y-167711309D01*
X108656250Y-167806547D01*
X108703869Y-167854166D01*
X108799107Y-167901785D01*
X108989583Y-167949404D01*
X109227678Y-167949404D01*
X109418154Y-167901785D01*
X109513392Y-167854166D01*
X109561011Y-167806547D01*
X109608630Y-167711309D01*
X109608630Y-167616071D01*
X109561011Y-167520833D01*
X109513392Y-167473214D01*
X109418154Y-167425595D01*
X109227678Y-167377976D01*
X108989583Y-167377976D01*
X108799107Y-167425595D01*
X108703869Y-167473214D01*
X108656250Y-167520833D01*
X108608630Y-167616071D01*
%TO.C,D19*%
X109608630Y-146423214D02*
X108608630Y-146423214D01*
X108608630Y-146661309D01*
X108656250Y-146804166D01*
X108751488Y-146899404D01*
X108846726Y-146947023D01*
X109037202Y-146994642D01*
X109180059Y-146994642D01*
X109370535Y-146947023D01*
X109465773Y-146899404D01*
X109561011Y-146804166D01*
X109608630Y-146661309D01*
X109608630Y-146423214D01*
X109608630Y-147947023D02*
X109608630Y-147375595D01*
X109608630Y-147661309D02*
X108608630Y-147661309D01*
X108751488Y-147566071D01*
X108846726Y-147470833D01*
X108894345Y-147375595D01*
X109608630Y-148423214D02*
X109608630Y-148613690D01*
X109561011Y-148708928D01*
X109513392Y-148756547D01*
X109370535Y-148851785D01*
X109180059Y-148899404D01*
X108799107Y-148899404D01*
X108703869Y-148851785D01*
X108656250Y-148804166D01*
X108608630Y-148708928D01*
X108608630Y-148518452D01*
X108656250Y-148423214D01*
X108703869Y-148375595D01*
X108799107Y-148327976D01*
X109037202Y-148327976D01*
X109132440Y-148375595D01*
X109180059Y-148423214D01*
X109227678Y-148518452D01*
X109227678Y-148708928D01*
X109180059Y-148804166D01*
X109132440Y-148851785D01*
X109037202Y-148899404D01*
%TO.C,D18*%
X109608630Y-127373214D02*
X108608630Y-127373214D01*
X108608630Y-127611309D01*
X108656250Y-127754166D01*
X108751488Y-127849404D01*
X108846726Y-127897023D01*
X109037202Y-127944642D01*
X109180059Y-127944642D01*
X109370535Y-127897023D01*
X109465773Y-127849404D01*
X109561011Y-127754166D01*
X109608630Y-127611309D01*
X109608630Y-127373214D01*
X109608630Y-128897023D02*
X109608630Y-128325595D01*
X109608630Y-128611309D02*
X108608630Y-128611309D01*
X108751488Y-128516071D01*
X108846726Y-128420833D01*
X108894345Y-128325595D01*
X109037202Y-129468452D02*
X108989583Y-129373214D01*
X108941964Y-129325595D01*
X108846726Y-129277976D01*
X108799107Y-129277976D01*
X108703869Y-129325595D01*
X108656250Y-129373214D01*
X108608630Y-129468452D01*
X108608630Y-129658928D01*
X108656250Y-129754166D01*
X108703869Y-129801785D01*
X108799107Y-129849404D01*
X108846726Y-129849404D01*
X108941964Y-129801785D01*
X108989583Y-129754166D01*
X109037202Y-129658928D01*
X109037202Y-129468452D01*
X109084821Y-129373214D01*
X109132440Y-129325595D01*
X109227678Y-129277976D01*
X109418154Y-129277976D01*
X109513392Y-129325595D01*
X109561011Y-129373214D01*
X109608630Y-129468452D01*
X109608630Y-129658928D01*
X109561011Y-129754166D01*
X109513392Y-129801785D01*
X109418154Y-129849404D01*
X109227678Y-129849404D01*
X109132440Y-129801785D01*
X109084821Y-129754166D01*
X109037202Y-129658928D01*
%TO.C,D17*%
X109608630Y-108323214D02*
X108608630Y-108323214D01*
X108608630Y-108561309D01*
X108656250Y-108704166D01*
X108751488Y-108799404D01*
X108846726Y-108847023D01*
X109037202Y-108894642D01*
X109180059Y-108894642D01*
X109370535Y-108847023D01*
X109465773Y-108799404D01*
X109561011Y-108704166D01*
X109608630Y-108561309D01*
X109608630Y-108323214D01*
X109608630Y-109847023D02*
X109608630Y-109275595D01*
X109608630Y-109561309D02*
X108608630Y-109561309D01*
X108751488Y-109466071D01*
X108846726Y-109370833D01*
X108894345Y-109275595D01*
X108608630Y-110180357D02*
X108608630Y-110847023D01*
X109608630Y-110418452D01*
%TO.C,D16*%
X109608630Y-89273214D02*
X108608630Y-89273214D01*
X108608630Y-89511309D01*
X108656250Y-89654166D01*
X108751488Y-89749404D01*
X108846726Y-89797023D01*
X109037202Y-89844642D01*
X109180059Y-89844642D01*
X109370535Y-89797023D01*
X109465773Y-89749404D01*
X109561011Y-89654166D01*
X109608630Y-89511309D01*
X109608630Y-89273214D01*
X109608630Y-90797023D02*
X109608630Y-90225595D01*
X109608630Y-90511309D02*
X108608630Y-90511309D01*
X108751488Y-90416071D01*
X108846726Y-90320833D01*
X108894345Y-90225595D01*
X108608630Y-91654166D02*
X108608630Y-91463690D01*
X108656250Y-91368452D01*
X108703869Y-91320833D01*
X108846726Y-91225595D01*
X109037202Y-91177976D01*
X109418154Y-91177976D01*
X109513392Y-91225595D01*
X109561011Y-91273214D01*
X109608630Y-91368452D01*
X109608630Y-91558928D01*
X109561011Y-91654166D01*
X109513392Y-91701785D01*
X109418154Y-91749404D01*
X109180059Y-91749404D01*
X109084821Y-91701785D01*
X109037202Y-91654166D01*
X108989583Y-91558928D01*
X108989583Y-91368452D01*
X109037202Y-91273214D01*
X109084821Y-91225595D01*
X109180059Y-91177976D01*
%TO.C,D15*%
X90558630Y-165473214D02*
X89558630Y-165473214D01*
X89558630Y-165711309D01*
X89606250Y-165854166D01*
X89701488Y-165949404D01*
X89796726Y-165997023D01*
X89987202Y-166044642D01*
X90130059Y-166044642D01*
X90320535Y-165997023D01*
X90415773Y-165949404D01*
X90511011Y-165854166D01*
X90558630Y-165711309D01*
X90558630Y-165473214D01*
X90558630Y-166997023D02*
X90558630Y-166425595D01*
X90558630Y-166711309D02*
X89558630Y-166711309D01*
X89701488Y-166616071D01*
X89796726Y-166520833D01*
X89844345Y-166425595D01*
X89558630Y-167901785D02*
X89558630Y-167425595D01*
X90034821Y-167377976D01*
X89987202Y-167425595D01*
X89939583Y-167520833D01*
X89939583Y-167758928D01*
X89987202Y-167854166D01*
X90034821Y-167901785D01*
X90130059Y-167949404D01*
X90368154Y-167949404D01*
X90463392Y-167901785D01*
X90511011Y-167854166D01*
X90558630Y-167758928D01*
X90558630Y-167520833D01*
X90511011Y-167425595D01*
X90463392Y-167377976D01*
%TO.C,D14*%
X90558630Y-146423214D02*
X89558630Y-146423214D01*
X89558630Y-146661309D01*
X89606250Y-146804166D01*
X89701488Y-146899404D01*
X89796726Y-146947023D01*
X89987202Y-146994642D01*
X90130059Y-146994642D01*
X90320535Y-146947023D01*
X90415773Y-146899404D01*
X90511011Y-146804166D01*
X90558630Y-146661309D01*
X90558630Y-146423214D01*
X90558630Y-147947023D02*
X90558630Y-147375595D01*
X90558630Y-147661309D02*
X89558630Y-147661309D01*
X89701488Y-147566071D01*
X89796726Y-147470833D01*
X89844345Y-147375595D01*
X89891964Y-148804166D02*
X90558630Y-148804166D01*
X89511011Y-148566071D02*
X90225297Y-148327976D01*
X90225297Y-148947023D01*
%TO.C,D13*%
X90558630Y-127373214D02*
X89558630Y-127373214D01*
X89558630Y-127611309D01*
X89606250Y-127754166D01*
X89701488Y-127849404D01*
X89796726Y-127897023D01*
X89987202Y-127944642D01*
X90130059Y-127944642D01*
X90320535Y-127897023D01*
X90415773Y-127849404D01*
X90511011Y-127754166D01*
X90558630Y-127611309D01*
X90558630Y-127373214D01*
X90558630Y-128897023D02*
X90558630Y-128325595D01*
X90558630Y-128611309D02*
X89558630Y-128611309D01*
X89701488Y-128516071D01*
X89796726Y-128420833D01*
X89844345Y-128325595D01*
X89558630Y-129230357D02*
X89558630Y-129849404D01*
X89939583Y-129516071D01*
X89939583Y-129658928D01*
X89987202Y-129754166D01*
X90034821Y-129801785D01*
X90130059Y-129849404D01*
X90368154Y-129849404D01*
X90463392Y-129801785D01*
X90511011Y-129754166D01*
X90558630Y-129658928D01*
X90558630Y-129373214D01*
X90511011Y-129277976D01*
X90463392Y-129230357D01*
%TO.C,D12*%
X90558630Y-108323214D02*
X89558630Y-108323214D01*
X89558630Y-108561309D01*
X89606250Y-108704166D01*
X89701488Y-108799404D01*
X89796726Y-108847023D01*
X89987202Y-108894642D01*
X90130059Y-108894642D01*
X90320535Y-108847023D01*
X90415773Y-108799404D01*
X90511011Y-108704166D01*
X90558630Y-108561309D01*
X90558630Y-108323214D01*
X90558630Y-109847023D02*
X90558630Y-109275595D01*
X90558630Y-109561309D02*
X89558630Y-109561309D01*
X89701488Y-109466071D01*
X89796726Y-109370833D01*
X89844345Y-109275595D01*
X89653869Y-110227976D02*
X89606250Y-110275595D01*
X89558630Y-110370833D01*
X89558630Y-110608928D01*
X89606250Y-110704166D01*
X89653869Y-110751785D01*
X89749107Y-110799404D01*
X89844345Y-110799404D01*
X89987202Y-110751785D01*
X90558630Y-110180357D01*
X90558630Y-110799404D01*
%TO.C,D11*%
X90558630Y-89273214D02*
X89558630Y-89273214D01*
X89558630Y-89511309D01*
X89606250Y-89654166D01*
X89701488Y-89749404D01*
X89796726Y-89797023D01*
X89987202Y-89844642D01*
X90130059Y-89844642D01*
X90320535Y-89797023D01*
X90415773Y-89749404D01*
X90511011Y-89654166D01*
X90558630Y-89511309D01*
X90558630Y-89273214D01*
X90558630Y-90797023D02*
X90558630Y-90225595D01*
X90558630Y-90511309D02*
X89558630Y-90511309D01*
X89701488Y-90416071D01*
X89796726Y-90320833D01*
X89844345Y-90225595D01*
X90558630Y-91749404D02*
X90558630Y-91177976D01*
X90558630Y-91463690D02*
X89558630Y-91463690D01*
X89701488Y-91368452D01*
X89796726Y-91273214D01*
X89844345Y-91177976D01*
%TO.C,D10*%
X71508630Y-165473214D02*
X70508630Y-165473214D01*
X70508630Y-165711309D01*
X70556250Y-165854166D01*
X70651488Y-165949404D01*
X70746726Y-165997023D01*
X70937202Y-166044642D01*
X71080059Y-166044642D01*
X71270535Y-165997023D01*
X71365773Y-165949404D01*
X71461011Y-165854166D01*
X71508630Y-165711309D01*
X71508630Y-165473214D01*
X71508630Y-166997023D02*
X71508630Y-166425595D01*
X71508630Y-166711309D02*
X70508630Y-166711309D01*
X70651488Y-166616071D01*
X70746726Y-166520833D01*
X70794345Y-166425595D01*
X70508630Y-167616071D02*
X70508630Y-167711309D01*
X70556250Y-167806547D01*
X70603869Y-167854166D01*
X70699107Y-167901785D01*
X70889583Y-167949404D01*
X71127678Y-167949404D01*
X71318154Y-167901785D01*
X71413392Y-167854166D01*
X71461011Y-167806547D01*
X71508630Y-167711309D01*
X71508630Y-167616071D01*
X71461011Y-167520833D01*
X71413392Y-167473214D01*
X71318154Y-167425595D01*
X71127678Y-167377976D01*
X70889583Y-167377976D01*
X70699107Y-167425595D01*
X70603869Y-167473214D01*
X70556250Y-167520833D01*
X70508630Y-167616071D01*
%TO.C,D9*%
X71508630Y-146899404D02*
X70508630Y-146899404D01*
X70508630Y-147137500D01*
X70556250Y-147280357D01*
X70651488Y-147375595D01*
X70746726Y-147423214D01*
X70937202Y-147470833D01*
X71080059Y-147470833D01*
X71270535Y-147423214D01*
X71365773Y-147375595D01*
X71461011Y-147280357D01*
X71508630Y-147137500D01*
X71508630Y-146899404D01*
X71508630Y-147947023D02*
X71508630Y-148137500D01*
X71461011Y-148232738D01*
X71413392Y-148280357D01*
X71270535Y-148375595D01*
X71080059Y-148423214D01*
X70699107Y-148423214D01*
X70603869Y-148375595D01*
X70556250Y-148327976D01*
X70508630Y-148232738D01*
X70508630Y-148042261D01*
X70556250Y-147947023D01*
X70603869Y-147899404D01*
X70699107Y-147851785D01*
X70937202Y-147851785D01*
X71032440Y-147899404D01*
X71080059Y-147947023D01*
X71127678Y-148042261D01*
X71127678Y-148232738D01*
X71080059Y-148327976D01*
X71032440Y-148375595D01*
X70937202Y-148423214D01*
%TO.C,D8*%
X71508630Y-127849404D02*
X70508630Y-127849404D01*
X70508630Y-128087500D01*
X70556250Y-128230357D01*
X70651488Y-128325595D01*
X70746726Y-128373214D01*
X70937202Y-128420833D01*
X71080059Y-128420833D01*
X71270535Y-128373214D01*
X71365773Y-128325595D01*
X71461011Y-128230357D01*
X71508630Y-128087500D01*
X71508630Y-127849404D01*
X70937202Y-128992261D02*
X70889583Y-128897023D01*
X70841964Y-128849404D01*
X70746726Y-128801785D01*
X70699107Y-128801785D01*
X70603869Y-128849404D01*
X70556250Y-128897023D01*
X70508630Y-128992261D01*
X70508630Y-129182738D01*
X70556250Y-129277976D01*
X70603869Y-129325595D01*
X70699107Y-129373214D01*
X70746726Y-129373214D01*
X70841964Y-129325595D01*
X70889583Y-129277976D01*
X70937202Y-129182738D01*
X70937202Y-128992261D01*
X70984821Y-128897023D01*
X71032440Y-128849404D01*
X71127678Y-128801785D01*
X71318154Y-128801785D01*
X71413392Y-128849404D01*
X71461011Y-128897023D01*
X71508630Y-128992261D01*
X71508630Y-129182738D01*
X71461011Y-129277976D01*
X71413392Y-129325595D01*
X71318154Y-129373214D01*
X71127678Y-129373214D01*
X71032440Y-129325595D01*
X70984821Y-129277976D01*
X70937202Y-129182738D01*
%TO.C,D7*%
X71508630Y-108799404D02*
X70508630Y-108799404D01*
X70508630Y-109037500D01*
X70556250Y-109180357D01*
X70651488Y-109275595D01*
X70746726Y-109323214D01*
X70937202Y-109370833D01*
X71080059Y-109370833D01*
X71270535Y-109323214D01*
X71365773Y-109275595D01*
X71461011Y-109180357D01*
X71508630Y-109037500D01*
X71508630Y-108799404D01*
X70508630Y-109704166D02*
X70508630Y-110370833D01*
X71508630Y-109942261D01*
%TO.C,D6*%
X71508630Y-89749404D02*
X70508630Y-89749404D01*
X70508630Y-89987500D01*
X70556250Y-90130357D01*
X70651488Y-90225595D01*
X70746726Y-90273214D01*
X70937202Y-90320833D01*
X71080059Y-90320833D01*
X71270535Y-90273214D01*
X71365773Y-90225595D01*
X71461011Y-90130357D01*
X71508630Y-89987500D01*
X71508630Y-89749404D01*
X70508630Y-91177976D02*
X70508630Y-90987500D01*
X70556250Y-90892261D01*
X70603869Y-90844642D01*
X70746726Y-90749404D01*
X70937202Y-90701785D01*
X71318154Y-90701785D01*
X71413392Y-90749404D01*
X71461011Y-90797023D01*
X71508630Y-90892261D01*
X71508630Y-91082738D01*
X71461011Y-91177976D01*
X71413392Y-91225595D01*
X71318154Y-91273214D01*
X71080059Y-91273214D01*
X70984821Y-91225595D01*
X70937202Y-91177976D01*
X70889583Y-91082738D01*
X70889583Y-90892261D01*
X70937202Y-90797023D01*
X70984821Y-90749404D01*
X71080059Y-90701785D01*
%TO.C,D5*%
X52458630Y-165949404D02*
X51458630Y-165949404D01*
X51458630Y-166187500D01*
X51506250Y-166330357D01*
X51601488Y-166425595D01*
X51696726Y-166473214D01*
X51887202Y-166520833D01*
X52030059Y-166520833D01*
X52220535Y-166473214D01*
X52315773Y-166425595D01*
X52411011Y-166330357D01*
X52458630Y-166187500D01*
X52458630Y-165949404D01*
X51458630Y-167425595D02*
X51458630Y-166949404D01*
X51934821Y-166901785D01*
X51887202Y-166949404D01*
X51839583Y-167044642D01*
X51839583Y-167282738D01*
X51887202Y-167377976D01*
X51934821Y-167425595D01*
X52030059Y-167473214D01*
X52268154Y-167473214D01*
X52363392Y-167425595D01*
X52411011Y-167377976D01*
X52458630Y-167282738D01*
X52458630Y-167044642D01*
X52411011Y-166949404D01*
X52363392Y-166901785D01*
%TO.C,D4*%
X52458630Y-146899404D02*
X51458630Y-146899404D01*
X51458630Y-147137500D01*
X51506250Y-147280357D01*
X51601488Y-147375595D01*
X51696726Y-147423214D01*
X51887202Y-147470833D01*
X52030059Y-147470833D01*
X52220535Y-147423214D01*
X52315773Y-147375595D01*
X52411011Y-147280357D01*
X52458630Y-147137500D01*
X52458630Y-146899404D01*
X51791964Y-148327976D02*
X52458630Y-148327976D01*
X51411011Y-148089880D02*
X52125297Y-147851785D01*
X52125297Y-148470833D01*
%TO.C,D3*%
X52458630Y-127849404D02*
X51458630Y-127849404D01*
X51458630Y-128087500D01*
X51506250Y-128230357D01*
X51601488Y-128325595D01*
X51696726Y-128373214D01*
X51887202Y-128420833D01*
X52030059Y-128420833D01*
X52220535Y-128373214D01*
X52315773Y-128325595D01*
X52411011Y-128230357D01*
X52458630Y-128087500D01*
X52458630Y-127849404D01*
X51458630Y-128754166D02*
X51458630Y-129373214D01*
X51839583Y-129039880D01*
X51839583Y-129182738D01*
X51887202Y-129277976D01*
X51934821Y-129325595D01*
X52030059Y-129373214D01*
X52268154Y-129373214D01*
X52363392Y-129325595D01*
X52411011Y-129277976D01*
X52458630Y-129182738D01*
X52458630Y-128897023D01*
X52411011Y-128801785D01*
X52363392Y-128754166D01*
%TO.C,D2*%
X52458630Y-108799404D02*
X51458630Y-108799404D01*
X51458630Y-109037500D01*
X51506250Y-109180357D01*
X51601488Y-109275595D01*
X51696726Y-109323214D01*
X51887202Y-109370833D01*
X52030059Y-109370833D01*
X52220535Y-109323214D01*
X52315773Y-109275595D01*
X52411011Y-109180357D01*
X52458630Y-109037500D01*
X52458630Y-108799404D01*
X51553869Y-109751785D02*
X51506250Y-109799404D01*
X51458630Y-109894642D01*
X51458630Y-110132738D01*
X51506250Y-110227976D01*
X51553869Y-110275595D01*
X51649107Y-110323214D01*
X51744345Y-110323214D01*
X51887202Y-110275595D01*
X52458630Y-109704166D01*
X52458630Y-110323214D01*
%TO.C,D1*%
X52458630Y-89749404D02*
X51458630Y-89749404D01*
X51458630Y-89987500D01*
X51506250Y-90130357D01*
X51601488Y-90225595D01*
X51696726Y-90273214D01*
X51887202Y-90320833D01*
X52030059Y-90320833D01*
X52220535Y-90273214D01*
X52315773Y-90225595D01*
X52411011Y-90130357D01*
X52458630Y-89987500D01*
X52458630Y-89749404D01*
X52458630Y-91273214D02*
X52458630Y-90701785D01*
X52458630Y-90987500D02*
X51458630Y-90987500D01*
X51601488Y-90892261D01*
X51696726Y-90797023D01*
X51744345Y-90701785D01*
%TO.C,C1*%
X72430892Y-55395833D02*
X72478511Y-55348214D01*
X72526130Y-55205357D01*
X72526130Y-55110119D01*
X72478511Y-54967261D01*
X72383273Y-54872023D01*
X72288035Y-54824404D01*
X72097559Y-54776785D01*
X71954702Y-54776785D01*
X71764226Y-54824404D01*
X71668988Y-54872023D01*
X71573750Y-54967261D01*
X71526130Y-55110119D01*
X71526130Y-55205357D01*
X71573750Y-55348214D01*
X71621369Y-55395833D01*
X72526130Y-56348214D02*
X72526130Y-55776785D01*
X72526130Y-56062500D02*
X71526130Y-56062500D01*
X71668988Y-55967261D01*
X71764226Y-55872023D01*
X71811845Y-55776785D01*
%TD*%
M02*
