%TF.GenerationSoftware,KiCad,Pcbnew,(5.1.8)-1*%
%TF.CreationDate,2020-11-22T17:19:48-05:00*%
%TF.ProjectId,macro_keyboard_pcb,6d616372-6f5f-46b6-9579-626f6172645f,rev?*%
%TF.SameCoordinates,Original*%
%TF.FileFunction,Copper,L2,Bot*%
%TF.FilePolarity,Positive*%
%FSLAX46Y46*%
G04 Gerber Fmt 4.6, Leading zero omitted, Abs format (unit mm)*
G04 Created by KiCad (PCBNEW (5.1.8)-1) date 2020-11-22 17:19:48*
%MOMM*%
%LPD*%
G01*
G04 APERTURE LIST*
%TA.AperFunction,ComponentPad*%
%ADD10C,4.000000*%
%TD*%
%TA.AperFunction,SMDPad,CuDef*%
%ADD11R,1.200000X0.900000*%
%TD*%
%TA.AperFunction,ComponentPad*%
%ADD12R,1.600000X1.600000*%
%TD*%
%TA.AperFunction,ComponentPad*%
%ADD13C,1.600000*%
%TD*%
%TA.AperFunction,ComponentPad*%
%ADD14C,2.200000*%
%TD*%
%TA.AperFunction,ComponentPad*%
%ADD15C,2.340000*%
%TD*%
%TA.AperFunction,ViaPad*%
%ADD16C,0.800000*%
%TD*%
%TA.AperFunction,Conductor*%
%ADD17C,0.381000*%
%TD*%
%TA.AperFunction,Conductor*%
%ADD18C,0.254000*%
%TD*%
G04 APERTURE END LIST*
D10*
%TO.P, ,1*%
%TO.N,N/C*%
X37306250Y-48418750D03*
%TD*%
%TO.P, ,1*%
%TO.N,N/C*%
X125412500Y-177800000D03*
%TD*%
%TO.P, ,1*%
%TO.N,N/C*%
X34925000Y-177800000D03*
%TD*%
D11*
%TO.P,D25,2*%
%TO.N,Net-(D25-Pad2)*%
X126206250Y-165037500D03*
%TO.P,D25,1*%
%TO.N,ROW4*%
X126206250Y-168337500D03*
%TD*%
%TO.P,D24,2*%
%TO.N,Net-(D24-Pad2)*%
X126206250Y-145987500D03*
%TO.P,D24,1*%
%TO.N,ROW3*%
X126206250Y-149287500D03*
%TD*%
%TO.P,D23,2*%
%TO.N,Net-(D23-Pad2)*%
X126206250Y-126937500D03*
%TO.P,D23,1*%
%TO.N,ROW2*%
X126206250Y-130237500D03*
%TD*%
%TO.P,D22,2*%
%TO.N,Net-(D22-Pad2)*%
X126206250Y-107887500D03*
%TO.P,D22,1*%
%TO.N,ROW1*%
X126206250Y-111187500D03*
%TD*%
%TO.P,D21,2*%
%TO.N,Net-(D21-Pad2)*%
X126206250Y-88837500D03*
%TO.P,D21,1*%
%TO.N,ROW0*%
X126206250Y-92137500D03*
%TD*%
%TO.P,D20,2*%
%TO.N,Net-(D20-Pad2)*%
X107156250Y-165037500D03*
%TO.P,D20,1*%
%TO.N,ROW4*%
X107156250Y-168337500D03*
%TD*%
%TO.P,D19,2*%
%TO.N,Net-(D19-Pad2)*%
X107156250Y-145987500D03*
%TO.P,D19,1*%
%TO.N,ROW3*%
X107156250Y-149287500D03*
%TD*%
%TO.P,D18,2*%
%TO.N,Net-(D18-Pad2)*%
X107156250Y-126937500D03*
%TO.P,D18,1*%
%TO.N,ROW2*%
X107156250Y-130237500D03*
%TD*%
%TO.P,D17,2*%
%TO.N,Net-(D17-Pad2)*%
X107156250Y-107887500D03*
%TO.P,D17,1*%
%TO.N,ROW1*%
X107156250Y-111187500D03*
%TD*%
%TO.P,D16,2*%
%TO.N,Net-(D16-Pad2)*%
X107156250Y-88837500D03*
%TO.P,D16,1*%
%TO.N,ROW0*%
X107156250Y-92137500D03*
%TD*%
%TO.P,D15,2*%
%TO.N,Net-(D15-Pad2)*%
X88106250Y-165037500D03*
%TO.P,D15,1*%
%TO.N,ROW4*%
X88106250Y-168337500D03*
%TD*%
%TO.P,D14,2*%
%TO.N,Net-(D14-Pad2)*%
X88106250Y-145987500D03*
%TO.P,D14,1*%
%TO.N,ROW3*%
X88106250Y-149287500D03*
%TD*%
%TO.P,D13,2*%
%TO.N,Net-(D13-Pad2)*%
X88106250Y-126937500D03*
%TO.P,D13,1*%
%TO.N,ROW2*%
X88106250Y-130237500D03*
%TD*%
%TO.P,D12,2*%
%TO.N,Net-(D12-Pad2)*%
X88106250Y-107887500D03*
%TO.P,D12,1*%
%TO.N,ROW1*%
X88106250Y-111187500D03*
%TD*%
%TO.P,D11,2*%
%TO.N,Net-(D11-Pad2)*%
X88106250Y-88837500D03*
%TO.P,D11,1*%
%TO.N,ROW0*%
X88106250Y-92137500D03*
%TD*%
%TO.P,D10,2*%
%TO.N,Net-(D10-Pad2)*%
X69056250Y-165037500D03*
%TO.P,D10,1*%
%TO.N,ROW4*%
X69056250Y-168337500D03*
%TD*%
%TO.P,D9,2*%
%TO.N,Net-(D9-Pad2)*%
X69056250Y-145987500D03*
%TO.P,D9,1*%
%TO.N,ROW3*%
X69056250Y-149287500D03*
%TD*%
%TO.P,D8,2*%
%TO.N,Net-(D8-Pad2)*%
X69056250Y-126937500D03*
%TO.P,D8,1*%
%TO.N,ROW2*%
X69056250Y-130237500D03*
%TD*%
%TO.P,D7,2*%
%TO.N,Net-(D7-Pad2)*%
X69056250Y-107887500D03*
%TO.P,D7,1*%
%TO.N,ROW1*%
X69056250Y-111187500D03*
%TD*%
%TO.P,D6,2*%
%TO.N,Net-(D6-Pad2)*%
X69056250Y-88837500D03*
%TO.P,D6,1*%
%TO.N,ROW0*%
X69056250Y-92137500D03*
%TD*%
%TO.P,D5,2*%
%TO.N,Net-(D5-Pad2)*%
X50006250Y-165037500D03*
%TO.P,D5,1*%
%TO.N,ROW4*%
X50006250Y-168337500D03*
%TD*%
%TO.P,D4,2*%
%TO.N,Net-(D4-Pad2)*%
X50006250Y-145987500D03*
%TO.P,D4,1*%
%TO.N,ROW3*%
X50006250Y-149287500D03*
%TD*%
%TO.P,D3,2*%
%TO.N,Net-(D3-Pad2)*%
X50006250Y-126937500D03*
%TO.P,D3,1*%
%TO.N,ROW2*%
X50006250Y-130237500D03*
%TD*%
%TO.P,D2,2*%
%TO.N,Net-(D2-Pad2)*%
X50006250Y-107887500D03*
%TO.P,D2,1*%
%TO.N,ROW1*%
X50006250Y-111187500D03*
%TD*%
%TO.P,D1,2*%
%TO.N,Net-(D1-Pad2)*%
X50006250Y-88837500D03*
%TO.P,D1,1*%
%TO.N,ROW0*%
X50006250Y-92137500D03*
%TD*%
D12*
%TO.P,U1,1*%
%TO.N,ROW4*%
X52705000Y-48736250D03*
D13*
%TO.P,U1,2*%
%TO.N,ROW3*%
X52705000Y-51276250D03*
%TO.P,U1,3*%
%TO.N,Net-(U1-Pad3)*%
X52705000Y-53816250D03*
%TO.P,U1,4*%
%TO.N,Net-(U1-Pad4)*%
X52705000Y-56356250D03*
%TO.P,U1,5*%
%TO.N,ROW2*%
X52705000Y-58896250D03*
%TO.P,U1,6*%
%TO.N,ROW1*%
X52705000Y-61436250D03*
%TO.P,U1,7*%
%TO.N,ROW0*%
X52705000Y-63976250D03*
%TO.P,U1,8*%
%TO.N,COL0*%
X52705000Y-66516250D03*
%TO.P,U1,9*%
%TO.N,COL1*%
X52705000Y-69056250D03*
%TO.P,U1,10*%
%TO.N,COL2*%
X52705000Y-71596250D03*
%TO.P,U1,11*%
%TO.N,COL3*%
X52705000Y-74136250D03*
%TO.P,U1,12*%
%TO.N,COL4*%
X52705000Y-76676250D03*
%TO.P,U1,13*%
%TO.N,POT4*%
X67945000Y-76676250D03*
%TO.P,U1,14*%
%TO.N,LED_DATA*%
X67945000Y-74136250D03*
%TO.P,U1,15*%
%TO.N,Net-(U1-Pad15)*%
X67945000Y-71596250D03*
%TO.P,U1,16*%
%TO.N,Net-(U1-Pad16)*%
X67945000Y-69056250D03*
%TO.P,U1,17*%
%TO.N,POT3*%
X67945000Y-66516250D03*
%TO.P,U1,18*%
%TO.N,POT2*%
X67945000Y-63976250D03*
%TO.P,U1,19*%
%TO.N,POT1*%
X67945000Y-61436250D03*
%TO.P,U1,20*%
%TO.N,POT0*%
X67945000Y-58896250D03*
%TO.P,U1,21*%
%TO.N,+5V*%
X67945000Y-56356250D03*
%TO.P,U1,22*%
%TO.N,Net-(U1-Pad22)*%
X67945000Y-53816250D03*
%TO.P,U1,23*%
%TO.N,GND*%
X67945000Y-51276250D03*
%TO.P,U1,24*%
%TO.N,Net-(U1-Pad24)*%
X67945000Y-48736250D03*
%TD*%
D14*
%TO.P,SW25,2*%
%TO.N,Net-(D25-Pad2)*%
X120808750Y-160020000D03*
%TO.P,SW25,1*%
%TO.N,COL4*%
X114458750Y-162560000D03*
%TD*%
%TO.P,SW24,2*%
%TO.N,Net-(D24-Pad2)*%
X120808750Y-140970000D03*
%TO.P,SW24,1*%
%TO.N,COL4*%
X114458750Y-143510000D03*
%TD*%
%TO.P,SW23,2*%
%TO.N,Net-(D23-Pad2)*%
X120808750Y-121920000D03*
%TO.P,SW23,1*%
%TO.N,COL4*%
X114458750Y-124460000D03*
%TD*%
%TO.P,SW22,2*%
%TO.N,Net-(D22-Pad2)*%
X120808750Y-102870000D03*
%TO.P,SW22,1*%
%TO.N,COL4*%
X114458750Y-105410000D03*
%TD*%
%TO.P,SW21,2*%
%TO.N,Net-(D21-Pad2)*%
X120808750Y-83820000D03*
%TO.P,SW21,1*%
%TO.N,COL4*%
X114458750Y-86360000D03*
%TD*%
%TO.P,SW20,2*%
%TO.N,Net-(D20-Pad2)*%
X101758750Y-160020000D03*
%TO.P,SW20,1*%
%TO.N,COL3*%
X95408750Y-162560000D03*
%TD*%
%TO.P,SW19,2*%
%TO.N,Net-(D19-Pad2)*%
X101758750Y-140970000D03*
%TO.P,SW19,1*%
%TO.N,COL3*%
X95408750Y-143510000D03*
%TD*%
%TO.P,SW18,2*%
%TO.N,Net-(D18-Pad2)*%
X101758750Y-121920000D03*
%TO.P,SW18,1*%
%TO.N,COL3*%
X95408750Y-124460000D03*
%TD*%
%TO.P,SW17,2*%
%TO.N,Net-(D17-Pad2)*%
X101758750Y-102870000D03*
%TO.P,SW17,1*%
%TO.N,COL3*%
X95408750Y-105410000D03*
%TD*%
%TO.P,SW16,2*%
%TO.N,Net-(D16-Pad2)*%
X101758750Y-83833750D03*
%TO.P,SW16,1*%
%TO.N,COL3*%
X95408750Y-86373750D03*
%TD*%
%TO.P,SW15,2*%
%TO.N,Net-(D15-Pad2)*%
X82708750Y-160020000D03*
%TO.P,SW15,1*%
%TO.N,COL2*%
X76358750Y-162560000D03*
%TD*%
%TO.P,SW14,2*%
%TO.N,Net-(D14-Pad2)*%
X82708750Y-140970000D03*
%TO.P,SW14,1*%
%TO.N,COL2*%
X76358750Y-143510000D03*
%TD*%
%TO.P,SW13,2*%
%TO.N,Net-(D13-Pad2)*%
X82708750Y-121920000D03*
%TO.P,SW13,1*%
%TO.N,COL2*%
X76358750Y-124460000D03*
%TD*%
%TO.P,SW12,2*%
%TO.N,Net-(D12-Pad2)*%
X82708750Y-102870000D03*
%TO.P,SW12,1*%
%TO.N,COL2*%
X76358750Y-105410000D03*
%TD*%
%TO.P,SW11,2*%
%TO.N,Net-(D11-Pad2)*%
X82708750Y-83820000D03*
%TO.P,SW11,1*%
%TO.N,COL2*%
X76358750Y-86360000D03*
%TD*%
%TO.P,SW10,2*%
%TO.N,Net-(D10-Pad2)*%
X63658750Y-160020000D03*
%TO.P,SW10,1*%
%TO.N,COL1*%
X57308750Y-162560000D03*
%TD*%
%TO.P,SW9,2*%
%TO.N,Net-(D9-Pad2)*%
X63658750Y-140970000D03*
%TO.P,SW9,1*%
%TO.N,COL1*%
X57308750Y-143510000D03*
%TD*%
%TO.P,SW8,2*%
%TO.N,Net-(D8-Pad2)*%
X63658750Y-121920000D03*
%TO.P,SW8,1*%
%TO.N,COL1*%
X57308750Y-124460000D03*
%TD*%
%TO.P,SW7,2*%
%TO.N,Net-(D7-Pad2)*%
X63658750Y-102870000D03*
%TO.P,SW7,1*%
%TO.N,COL1*%
X57308750Y-105410000D03*
%TD*%
%TO.P,SW6,2*%
%TO.N,Net-(D6-Pad2)*%
X63658750Y-83820000D03*
%TO.P,SW6,1*%
%TO.N,COL1*%
X57308750Y-86360000D03*
%TD*%
%TO.P,SW5,2*%
%TO.N,Net-(D5-Pad2)*%
X44608750Y-160020000D03*
%TO.P,SW5,1*%
%TO.N,COL0*%
X38258750Y-162560000D03*
%TD*%
%TO.P,SW4,2*%
%TO.N,Net-(D4-Pad2)*%
X44608750Y-140970000D03*
%TO.P,SW4,1*%
%TO.N,COL0*%
X38258750Y-143510000D03*
%TD*%
%TO.P,SW3,2*%
%TO.N,Net-(D3-Pad2)*%
X44608750Y-121920000D03*
%TO.P,SW3,1*%
%TO.N,COL0*%
X38258750Y-124460000D03*
%TD*%
%TO.P,SW2,2*%
%TO.N,Net-(D2-Pad2)*%
X44608750Y-102870000D03*
%TO.P,SW2,1*%
%TO.N,COL0*%
X38258750Y-105410000D03*
%TD*%
%TO.P,SW1,2*%
%TO.N,Net-(D1-Pad2)*%
X44608750Y-83820000D03*
%TO.P,SW1,1*%
%TO.N,COL0*%
X38258750Y-86360000D03*
%TD*%
D15*
%TO.P,RV5,1*%
%TO.N,GND*%
X124618750Y-54768750D03*
%TO.P,RV5,2*%
%TO.N,POT4*%
X122118750Y-44768750D03*
%TO.P,RV5,3*%
%TO.N,+5V*%
X119618750Y-54768750D03*
%TD*%
%TO.P,RV4,1*%
%TO.N,GND*%
X113506250Y-54768750D03*
%TO.P,RV4,2*%
%TO.N,POT3*%
X111006250Y-44768750D03*
%TO.P,RV4,3*%
%TO.N,+5V*%
X108506250Y-54768750D03*
%TD*%
%TO.P,RV3,1*%
%TO.N,GND*%
X102393750Y-54768750D03*
%TO.P,RV3,2*%
%TO.N,POT2*%
X99893750Y-44768750D03*
%TO.P,RV3,3*%
%TO.N,+5V*%
X97393750Y-54768750D03*
%TD*%
%TO.P,RV2,1*%
%TO.N,GND*%
X91281250Y-54768750D03*
%TO.P,RV2,2*%
%TO.N,POT1*%
X88781250Y-44768750D03*
%TO.P,RV2,3*%
%TO.N,+5V*%
X86281250Y-54768750D03*
%TD*%
%TO.P,RV1,1*%
%TO.N,GND*%
X80168750Y-54768750D03*
%TO.P,RV1,2*%
%TO.N,POT0*%
X77668750Y-44768750D03*
%TO.P,RV1,3*%
%TO.N,+5V*%
X75168750Y-54768750D03*
%TD*%
%TO.P,C1,1*%
%TO.N,+5V*%
%TA.AperFunction,SMDPad,CuDef*%
G36*
G01*
X70881250Y-56962500D02*
X70406250Y-56962500D01*
G75*
G02*
X70168750Y-56725000I0J237500D01*
G01*
X70168750Y-56125000D01*
G75*
G02*
X70406250Y-55887500I237500J0D01*
G01*
X70881250Y-55887500D01*
G75*
G02*
X71118750Y-56125000I0J-237500D01*
G01*
X71118750Y-56725000D01*
G75*
G02*
X70881250Y-56962500I-237500J0D01*
G01*
G37*
%TD.AperFunction*%
%TO.P,C1,2*%
%TO.N,GND*%
%TA.AperFunction,SMDPad,CuDef*%
G36*
G01*
X70881250Y-55237500D02*
X70406250Y-55237500D01*
G75*
G02*
X70168750Y-55000000I0J237500D01*
G01*
X70168750Y-54400000D01*
G75*
G02*
X70406250Y-54162500I237500J0D01*
G01*
X70881250Y-54162500D01*
G75*
G02*
X71118750Y-54400000I0J-237500D01*
G01*
X71118750Y-55000000D01*
G75*
G02*
X70881250Y-55237500I-237500J0D01*
G01*
G37*
%TD.AperFunction*%
%TD*%
D16*
%TO.N,+5V*%
X126206250Y-72231250D03*
%TO.N,LED_DATA*%
X118268750Y-77787500D03*
%TD*%
D17*
%TO.N,GND*%
X70643750Y-53975000D02*
X67945000Y-51276250D01*
X70643750Y-54700000D02*
X70643750Y-53975000D01*
X80168750Y-54768750D02*
X82550000Y-52387500D01*
X122237500Y-52387500D02*
X124618750Y-54768750D01*
X113506250Y-54768750D02*
X111125000Y-52387500D01*
X111125000Y-52387500D02*
X122237500Y-52387500D01*
X102393750Y-54768750D02*
X100012500Y-52387500D01*
X100012500Y-52387500D02*
X111125000Y-52387500D01*
X91281250Y-54768750D02*
X88900000Y-52387500D01*
X88900000Y-52387500D02*
X100012500Y-52387500D01*
X82550000Y-52387500D02*
X88900000Y-52387500D01*
X76676250Y-51276250D02*
X80168750Y-54768750D01*
X67945000Y-51276250D02*
X76676250Y-51276250D01*
%TO.N,+5V*%
X70575000Y-56356250D02*
X70643750Y-56425000D01*
X67945000Y-56356250D02*
X70575000Y-56356250D01*
X75168750Y-54768750D02*
X78343750Y-57943750D01*
X116443750Y-57943750D02*
X119618750Y-54768750D01*
X105568750Y-57706250D02*
X105568750Y-57943750D01*
X108506250Y-54768750D02*
X105568750Y-57706250D01*
X105568750Y-57943750D02*
X116443750Y-57943750D01*
X94456250Y-57706250D02*
X94456250Y-57943750D01*
X94456250Y-57943750D02*
X105568750Y-57943750D01*
X97393750Y-54768750D02*
X94456250Y-57706250D01*
X83343750Y-57706250D02*
X83343750Y-57943750D01*
X86281250Y-54768750D02*
X83343750Y-57706250D01*
X83343750Y-57943750D02*
X94456250Y-57943750D01*
X78343750Y-57943750D02*
X83343750Y-57943750D01*
X73512500Y-56425000D02*
X75168750Y-54768750D01*
X70643750Y-56425000D02*
X73512500Y-56425000D01*
X119618750Y-65643750D02*
X126206250Y-72231250D01*
X119618750Y-54768750D02*
X119618750Y-65643750D01*
D18*
%TO.N,Net-(D1-Pad2)*%
X44608750Y-83820000D02*
X48101250Y-83820000D01*
X50006250Y-85725000D02*
X50006250Y-88837500D01*
X48101250Y-83820000D02*
X50006250Y-85725000D01*
%TO.N,ROW0*%
X50006250Y-92137500D02*
X126206250Y-92137500D01*
X50006250Y-92137500D02*
X50006250Y-92075000D01*
X50006250Y-92075000D02*
X42068750Y-84137500D01*
X52705000Y-63976250D02*
X45561250Y-63976250D01*
X42068750Y-67468750D02*
X42068750Y-84137500D01*
X45561250Y-63976250D02*
X42068750Y-67468750D01*
%TO.N,Net-(D2-Pad2)*%
X44608750Y-102870000D02*
X48101250Y-102870000D01*
X50006250Y-104775000D02*
X50006250Y-107887500D01*
X48101250Y-102870000D02*
X50006250Y-104775000D01*
%TO.N,ROW1*%
X50006250Y-111187500D02*
X126206250Y-111187500D01*
X50006250Y-111125000D02*
X50006250Y-111187500D01*
X36831749Y-97950499D02*
X50006250Y-111125000D01*
X36831749Y-72063684D02*
X36831749Y-97950499D01*
X47459183Y-61436250D02*
X36831749Y-72063684D01*
X52705000Y-61436250D02*
X47459183Y-61436250D01*
%TO.N,Net-(D3-Pad2)*%
X44608750Y-121920000D02*
X48101250Y-121920000D01*
X50006250Y-123825000D02*
X50006250Y-126937500D01*
X48101250Y-121920000D02*
X50006250Y-123825000D01*
%TO.N,ROW2*%
X50006250Y-130237500D02*
X126206250Y-130237500D01*
X126206250Y-130237500D02*
X126206250Y-130175000D01*
X36377739Y-116608989D02*
X50006250Y-130237500D01*
X36377739Y-71875627D02*
X36377739Y-116608989D01*
X49357116Y-58896250D02*
X36377739Y-71875627D01*
X52705000Y-58896250D02*
X49357116Y-58896250D01*
%TO.N,Net-(D4-Pad2)*%
X44608750Y-140970000D02*
X48101250Y-140970000D01*
X50006250Y-142875000D02*
X50006250Y-145987500D01*
X48101250Y-140970000D02*
X50006250Y-142875000D01*
%TO.N,ROW3*%
X50006250Y-149287500D02*
X126206250Y-149287500D01*
X35923729Y-135204979D02*
X50006250Y-149287500D01*
X35923729Y-68057521D02*
X35923729Y-135204979D01*
X52705000Y-51276250D02*
X35923729Y-68057521D01*
%TO.N,Net-(D5-Pad2)*%
X44608750Y-160020000D02*
X48101250Y-160020000D01*
X50006250Y-161925000D02*
X50006250Y-165037500D01*
X48101250Y-160020000D02*
X50006250Y-161925000D01*
%TO.N,ROW4*%
X50006250Y-168337500D02*
X126206250Y-168337500D01*
X50006250Y-168337500D02*
X50006250Y-168275000D01*
X35469719Y-65971531D02*
X52705000Y-48736250D01*
X35469719Y-155057007D02*
X35469719Y-65971531D01*
X48687712Y-168275000D02*
X35469719Y-155057007D01*
X50006250Y-168275000D02*
X48687712Y-168275000D01*
%TO.N,Net-(D6-Pad2)*%
X63658750Y-83820000D02*
X67151250Y-83820000D01*
X69056250Y-85725000D02*
X69056250Y-88837500D01*
X67151250Y-83820000D02*
X69056250Y-85725000D01*
%TO.N,Net-(D7-Pad2)*%
X63658750Y-102870000D02*
X67151250Y-102870000D01*
X69056250Y-104775000D02*
X69056250Y-107887500D01*
X67151250Y-102870000D02*
X69056250Y-104775000D01*
%TO.N,Net-(D8-Pad2)*%
X63658750Y-121920000D02*
X67151250Y-121920000D01*
X69056250Y-123825000D02*
X69056250Y-126937500D01*
X67151250Y-121920000D02*
X69056250Y-123825000D01*
%TO.N,Net-(D9-Pad2)*%
X63658750Y-140970000D02*
X67151250Y-140970000D01*
X69056250Y-142875000D02*
X69056250Y-145987500D01*
X67151250Y-140970000D02*
X69056250Y-142875000D01*
%TO.N,Net-(D10-Pad2)*%
X63658750Y-160020000D02*
X67151250Y-160020000D01*
X69056250Y-161925000D02*
X69056250Y-165037500D01*
X67151250Y-160020000D02*
X69056250Y-161925000D01*
%TO.N,Net-(D11-Pad2)*%
X82708750Y-83820000D02*
X86201250Y-83820000D01*
X88106250Y-85725000D02*
X88106250Y-88837500D01*
X86201250Y-83820000D02*
X88106250Y-85725000D01*
%TO.N,Net-(D12-Pad2)*%
X82708750Y-102870000D02*
X86201250Y-102870000D01*
X88106250Y-104775000D02*
X88106250Y-107887500D01*
X86201250Y-102870000D02*
X88106250Y-104775000D01*
%TO.N,Net-(D13-Pad2)*%
X82708750Y-121920000D02*
X86201250Y-121920000D01*
X88106250Y-123825000D02*
X88106250Y-126937500D01*
X86201250Y-121920000D02*
X88106250Y-123825000D01*
%TO.N,Net-(D14-Pad2)*%
X82708750Y-140970000D02*
X86201250Y-140970000D01*
X88106250Y-142875000D02*
X88106250Y-145987500D01*
X86201250Y-140970000D02*
X88106250Y-142875000D01*
%TO.N,Net-(D15-Pad2)*%
X82708750Y-160020000D02*
X86201250Y-160020000D01*
X88106250Y-161925000D02*
X88106250Y-165037500D01*
X86201250Y-160020000D02*
X88106250Y-161925000D01*
%TO.N,Net-(D16-Pad2)*%
X101758750Y-83833750D02*
X105265000Y-83833750D01*
X107156250Y-85725000D02*
X107156250Y-88837500D01*
X105265000Y-83833750D02*
X107156250Y-85725000D01*
%TO.N,Net-(D17-Pad2)*%
X101758750Y-102870000D02*
X105251250Y-102870000D01*
X107156250Y-104775000D02*
X107156250Y-107887500D01*
X105251250Y-102870000D02*
X107156250Y-104775000D01*
%TO.N,Net-(D18-Pad2)*%
X101758750Y-121920000D02*
X105251250Y-121920000D01*
X107156250Y-123825000D02*
X107156250Y-126937500D01*
X105251250Y-121920000D02*
X107156250Y-123825000D01*
%TO.N,Net-(D19-Pad2)*%
X101758750Y-140970000D02*
X105251250Y-140970000D01*
X107156250Y-142875000D02*
X107156250Y-145987500D01*
X105251250Y-140970000D02*
X107156250Y-142875000D01*
%TO.N,Net-(D20-Pad2)*%
X101758750Y-160020000D02*
X105251250Y-160020000D01*
X107156250Y-161925000D02*
X107156250Y-165037500D01*
X105251250Y-160020000D02*
X107156250Y-161925000D01*
%TO.N,Net-(D21-Pad2)*%
X120808750Y-83820000D02*
X124301250Y-83820000D01*
X126206250Y-85725000D02*
X126206250Y-88837500D01*
X124301250Y-83820000D02*
X126206250Y-85725000D01*
%TO.N,Net-(D22-Pad2)*%
X120808750Y-102870000D02*
X124301250Y-102870000D01*
X126206250Y-104775000D02*
X126206250Y-107887500D01*
X124301250Y-102870000D02*
X126206250Y-104775000D01*
%TO.N,Net-(D23-Pad2)*%
X120808750Y-121920000D02*
X124301250Y-121920000D01*
X126206250Y-123825000D02*
X126206250Y-126937500D01*
X124301250Y-121920000D02*
X126206250Y-123825000D01*
%TO.N,Net-(D24-Pad2)*%
X120808750Y-140970000D02*
X124301250Y-140970000D01*
X126206250Y-142875000D02*
X126206250Y-145987500D01*
X124301250Y-140970000D02*
X126206250Y-142875000D01*
%TO.N,Net-(D25-Pad2)*%
X120808750Y-160020000D02*
X124301250Y-160020000D01*
X126206250Y-161925000D02*
X126206250Y-165037500D01*
X124301250Y-160020000D02*
X126206250Y-161925000D01*
%TO.N,LED_DATA*%
X114617500Y-74136250D02*
X118268750Y-77787500D01*
X67945000Y-74136250D02*
X114617500Y-74136250D01*
%TO.N,COL0*%
X38258750Y-86360000D02*
X38735000Y-86360000D01*
%TD*%
M02*
