%TF.GenerationSoftware,KiCad,Pcbnew,(5.1.8)-1*%
%TF.CreationDate,2020-11-22T17:19:48-05:00*%
%TF.ProjectId,macro_keyboard_pcb,6d616372-6f5f-46b6-9579-626f6172645f,rev?*%
%TF.SameCoordinates,Original*%
%TF.FileFunction,Paste,Bot*%
%TF.FilePolarity,Positive*%
%FSLAX46Y46*%
G04 Gerber Fmt 4.6, Leading zero omitted, Abs format (unit mm)*
G04 Created by KiCad (PCBNEW (5.1.8)-1) date 2020-11-22 17:19:48*
%MOMM*%
%LPD*%
G01*
G04 APERTURE LIST*
%ADD10R,1.200000X0.900000*%
G04 APERTURE END LIST*
D10*
%TO.C,D25*%
X126206250Y-165037500D03*
X126206250Y-168337500D03*
%TD*%
%TO.C,D24*%
X126206250Y-145987500D03*
X126206250Y-149287500D03*
%TD*%
%TO.C,D23*%
X126206250Y-126937500D03*
X126206250Y-130237500D03*
%TD*%
%TO.C,D22*%
X126206250Y-107887500D03*
X126206250Y-111187500D03*
%TD*%
%TO.C,D21*%
X126206250Y-88837500D03*
X126206250Y-92137500D03*
%TD*%
%TO.C,D20*%
X107156250Y-165037500D03*
X107156250Y-168337500D03*
%TD*%
%TO.C,D19*%
X107156250Y-145987500D03*
X107156250Y-149287500D03*
%TD*%
%TO.C,D18*%
X107156250Y-126937500D03*
X107156250Y-130237500D03*
%TD*%
%TO.C,D17*%
X107156250Y-107887500D03*
X107156250Y-111187500D03*
%TD*%
%TO.C,D16*%
X107156250Y-88837500D03*
X107156250Y-92137500D03*
%TD*%
%TO.C,D15*%
X88106250Y-165037500D03*
X88106250Y-168337500D03*
%TD*%
%TO.C,D14*%
X88106250Y-145987500D03*
X88106250Y-149287500D03*
%TD*%
%TO.C,D13*%
X88106250Y-126937500D03*
X88106250Y-130237500D03*
%TD*%
%TO.C,D12*%
X88106250Y-107887500D03*
X88106250Y-111187500D03*
%TD*%
%TO.C,D11*%
X88106250Y-88837500D03*
X88106250Y-92137500D03*
%TD*%
%TO.C,D10*%
X69056250Y-165037500D03*
X69056250Y-168337500D03*
%TD*%
%TO.C,D9*%
X69056250Y-145987500D03*
X69056250Y-149287500D03*
%TD*%
%TO.C,D8*%
X69056250Y-126937500D03*
X69056250Y-130237500D03*
%TD*%
%TO.C,D7*%
X69056250Y-107887500D03*
X69056250Y-111187500D03*
%TD*%
%TO.C,D6*%
X69056250Y-88837500D03*
X69056250Y-92137500D03*
%TD*%
%TO.C,D5*%
X50006250Y-165037500D03*
X50006250Y-168337500D03*
%TD*%
%TO.C,D4*%
X50006250Y-145987500D03*
X50006250Y-149287500D03*
%TD*%
%TO.C,D3*%
X50006250Y-126937500D03*
X50006250Y-130237500D03*
%TD*%
%TO.C,D2*%
X50006250Y-107887500D03*
X50006250Y-111187500D03*
%TD*%
%TO.C,D1*%
X50006250Y-88837500D03*
X50006250Y-92137500D03*
%TD*%
%TO.C,C1*%
G36*
G01*
X70881250Y-56962500D02*
X70406250Y-56962500D01*
G75*
G02*
X70168750Y-56725000I0J237500D01*
G01*
X70168750Y-56125000D01*
G75*
G02*
X70406250Y-55887500I237500J0D01*
G01*
X70881250Y-55887500D01*
G75*
G02*
X71118750Y-56125000I0J-237500D01*
G01*
X71118750Y-56725000D01*
G75*
G02*
X70881250Y-56962500I-237500J0D01*
G01*
G37*
G36*
G01*
X70881250Y-55237500D02*
X70406250Y-55237500D01*
G75*
G02*
X70168750Y-55000000I0J237500D01*
G01*
X70168750Y-54400000D01*
G75*
G02*
X70406250Y-54162500I237500J0D01*
G01*
X70881250Y-54162500D01*
G75*
G02*
X71118750Y-54400000I0J-237500D01*
G01*
X71118750Y-55000000D01*
G75*
G02*
X70881250Y-55237500I-237500J0D01*
G01*
G37*
%TD*%
M02*
