%TF.GenerationSoftware,KiCad,Pcbnew,(5.1.8)-1*%
%TF.CreationDate,2020-11-22T17:19:48-05:00*%
%TF.ProjectId,macro_keyboard_pcb,6d616372-6f5f-46b6-9579-626f6172645f,rev?*%
%TF.SameCoordinates,Original*%
%TF.FileFunction,Copper,L1,Top*%
%TF.FilePolarity,Positive*%
%FSLAX46Y46*%
G04 Gerber Fmt 4.6, Leading zero omitted, Abs format (unit mm)*
G04 Created by KiCad (PCBNEW (5.1.8)-1) date 2020-11-22 17:19:48*
%MOMM*%
%LPD*%
G01*
G04 APERTURE LIST*
%TA.AperFunction,ComponentPad*%
%ADD10C,4.000000*%
%TD*%
%TA.AperFunction,ComponentPad*%
%ADD11R,1.600000X1.600000*%
%TD*%
%TA.AperFunction,ComponentPad*%
%ADD12C,1.600000*%
%TD*%
%TA.AperFunction,ComponentPad*%
%ADD13C,2.200000*%
%TD*%
%TA.AperFunction,ComponentPad*%
%ADD14C,2.340000*%
%TD*%
%TA.AperFunction,SMDPad,CuDef*%
%ADD15R,1.500000X1.000000*%
%TD*%
%TA.AperFunction,ViaPad*%
%ADD16C,0.800000*%
%TD*%
%TA.AperFunction,Conductor*%
%ADD17C,0.381000*%
%TD*%
%TA.AperFunction,Conductor*%
%ADD18C,0.254000*%
%TD*%
G04 APERTURE END LIST*
D10*
%TO.P, ,1*%
%TO.N,N/C*%
X37306250Y-48418750D03*
%TD*%
%TO.P, ,1*%
%TO.N,N/C*%
X125412500Y-177800000D03*
%TD*%
%TO.P, ,1*%
%TO.N,N/C*%
X34925000Y-177800000D03*
%TD*%
D11*
%TO.P,U1,1*%
%TO.N,ROW4*%
X52705000Y-48736250D03*
D12*
%TO.P,U1,2*%
%TO.N,ROW3*%
X52705000Y-51276250D03*
%TO.P,U1,3*%
%TO.N,Net-(U1-Pad3)*%
X52705000Y-53816250D03*
%TO.P,U1,4*%
%TO.N,Net-(U1-Pad4)*%
X52705000Y-56356250D03*
%TO.P,U1,5*%
%TO.N,ROW2*%
X52705000Y-58896250D03*
%TO.P,U1,6*%
%TO.N,ROW1*%
X52705000Y-61436250D03*
%TO.P,U1,7*%
%TO.N,ROW0*%
X52705000Y-63976250D03*
%TO.P,U1,8*%
%TO.N,COL0*%
X52705000Y-66516250D03*
%TO.P,U1,9*%
%TO.N,COL1*%
X52705000Y-69056250D03*
%TO.P,U1,10*%
%TO.N,COL2*%
X52705000Y-71596250D03*
%TO.P,U1,11*%
%TO.N,COL3*%
X52705000Y-74136250D03*
%TO.P,U1,12*%
%TO.N,COL4*%
X52705000Y-76676250D03*
%TO.P,U1,13*%
%TO.N,POT4*%
X67945000Y-76676250D03*
%TO.P,U1,14*%
%TO.N,LED_DATA*%
X67945000Y-74136250D03*
%TO.P,U1,15*%
%TO.N,Net-(U1-Pad15)*%
X67945000Y-71596250D03*
%TO.P,U1,16*%
%TO.N,Net-(U1-Pad16)*%
X67945000Y-69056250D03*
%TO.P,U1,17*%
%TO.N,POT3*%
X67945000Y-66516250D03*
%TO.P,U1,18*%
%TO.N,POT2*%
X67945000Y-63976250D03*
%TO.P,U1,19*%
%TO.N,POT1*%
X67945000Y-61436250D03*
%TO.P,U1,20*%
%TO.N,POT0*%
X67945000Y-58896250D03*
%TO.P,U1,21*%
%TO.N,+5V*%
X67945000Y-56356250D03*
%TO.P,U1,22*%
%TO.N,Net-(U1-Pad22)*%
X67945000Y-53816250D03*
%TO.P,U1,23*%
%TO.N,GND*%
X67945000Y-51276250D03*
%TO.P,U1,24*%
%TO.N,Net-(U1-Pad24)*%
X67945000Y-48736250D03*
%TD*%
D13*
%TO.P,SW25,2*%
%TO.N,Net-(D25-Pad2)*%
X120808750Y-160020000D03*
%TO.P,SW25,1*%
%TO.N,COL4*%
X114458750Y-162560000D03*
%TD*%
%TO.P,SW24,2*%
%TO.N,Net-(D24-Pad2)*%
X120808750Y-140970000D03*
%TO.P,SW24,1*%
%TO.N,COL4*%
X114458750Y-143510000D03*
%TD*%
%TO.P,SW23,2*%
%TO.N,Net-(D23-Pad2)*%
X120808750Y-121920000D03*
%TO.P,SW23,1*%
%TO.N,COL4*%
X114458750Y-124460000D03*
%TD*%
%TO.P,SW22,2*%
%TO.N,Net-(D22-Pad2)*%
X120808750Y-102870000D03*
%TO.P,SW22,1*%
%TO.N,COL4*%
X114458750Y-105410000D03*
%TD*%
%TO.P,SW21,2*%
%TO.N,Net-(D21-Pad2)*%
X120808750Y-83820000D03*
%TO.P,SW21,1*%
%TO.N,COL4*%
X114458750Y-86360000D03*
%TD*%
%TO.P,SW20,2*%
%TO.N,Net-(D20-Pad2)*%
X101758750Y-160020000D03*
%TO.P,SW20,1*%
%TO.N,COL3*%
X95408750Y-162560000D03*
%TD*%
%TO.P,SW19,2*%
%TO.N,Net-(D19-Pad2)*%
X101758750Y-140970000D03*
%TO.P,SW19,1*%
%TO.N,COL3*%
X95408750Y-143510000D03*
%TD*%
%TO.P,SW18,2*%
%TO.N,Net-(D18-Pad2)*%
X101758750Y-121920000D03*
%TO.P,SW18,1*%
%TO.N,COL3*%
X95408750Y-124460000D03*
%TD*%
%TO.P,SW17,2*%
%TO.N,Net-(D17-Pad2)*%
X101758750Y-102870000D03*
%TO.P,SW17,1*%
%TO.N,COL3*%
X95408750Y-105410000D03*
%TD*%
%TO.P,SW16,2*%
%TO.N,Net-(D16-Pad2)*%
X101758750Y-83833750D03*
%TO.P,SW16,1*%
%TO.N,COL3*%
X95408750Y-86373750D03*
%TD*%
%TO.P,SW15,2*%
%TO.N,Net-(D15-Pad2)*%
X82708750Y-160020000D03*
%TO.P,SW15,1*%
%TO.N,COL2*%
X76358750Y-162560000D03*
%TD*%
%TO.P,SW14,2*%
%TO.N,Net-(D14-Pad2)*%
X82708750Y-140970000D03*
%TO.P,SW14,1*%
%TO.N,COL2*%
X76358750Y-143510000D03*
%TD*%
%TO.P,SW13,2*%
%TO.N,Net-(D13-Pad2)*%
X82708750Y-121920000D03*
%TO.P,SW13,1*%
%TO.N,COL2*%
X76358750Y-124460000D03*
%TD*%
%TO.P,SW12,2*%
%TO.N,Net-(D12-Pad2)*%
X82708750Y-102870000D03*
%TO.P,SW12,1*%
%TO.N,COL2*%
X76358750Y-105410000D03*
%TD*%
%TO.P,SW11,2*%
%TO.N,Net-(D11-Pad2)*%
X82708750Y-83820000D03*
%TO.P,SW11,1*%
%TO.N,COL2*%
X76358750Y-86360000D03*
%TD*%
%TO.P,SW10,2*%
%TO.N,Net-(D10-Pad2)*%
X63658750Y-160020000D03*
%TO.P,SW10,1*%
%TO.N,COL1*%
X57308750Y-162560000D03*
%TD*%
%TO.P,SW9,2*%
%TO.N,Net-(D9-Pad2)*%
X63658750Y-140970000D03*
%TO.P,SW9,1*%
%TO.N,COL1*%
X57308750Y-143510000D03*
%TD*%
%TO.P,SW8,2*%
%TO.N,Net-(D8-Pad2)*%
X63658750Y-121920000D03*
%TO.P,SW8,1*%
%TO.N,COL1*%
X57308750Y-124460000D03*
%TD*%
%TO.P,SW7,2*%
%TO.N,Net-(D7-Pad2)*%
X63658750Y-102870000D03*
%TO.P,SW7,1*%
%TO.N,COL1*%
X57308750Y-105410000D03*
%TD*%
%TO.P,SW6,2*%
%TO.N,Net-(D6-Pad2)*%
X63658750Y-83820000D03*
%TO.P,SW6,1*%
%TO.N,COL1*%
X57308750Y-86360000D03*
%TD*%
%TO.P,SW5,2*%
%TO.N,Net-(D5-Pad2)*%
X44608750Y-160020000D03*
%TO.P,SW5,1*%
%TO.N,COL0*%
X38258750Y-162560000D03*
%TD*%
%TO.P,SW4,2*%
%TO.N,Net-(D4-Pad2)*%
X44608750Y-140970000D03*
%TO.P,SW4,1*%
%TO.N,COL0*%
X38258750Y-143510000D03*
%TD*%
%TO.P,SW3,2*%
%TO.N,Net-(D3-Pad2)*%
X44608750Y-121920000D03*
%TO.P,SW3,1*%
%TO.N,COL0*%
X38258750Y-124460000D03*
%TD*%
%TO.P,SW2,2*%
%TO.N,Net-(D2-Pad2)*%
X44608750Y-102870000D03*
%TO.P,SW2,1*%
%TO.N,COL0*%
X38258750Y-105410000D03*
%TD*%
%TO.P,SW1,2*%
%TO.N,Net-(D1-Pad2)*%
X44608750Y-83820000D03*
%TO.P,SW1,1*%
%TO.N,COL0*%
X38258750Y-86360000D03*
%TD*%
D14*
%TO.P,RV5,1*%
%TO.N,GND*%
X124618750Y-54768750D03*
%TO.P,RV5,2*%
%TO.N,POT4*%
X122118750Y-44768750D03*
%TO.P,RV5,3*%
%TO.N,+5V*%
X119618750Y-54768750D03*
%TD*%
%TO.P,RV4,1*%
%TO.N,GND*%
X113506250Y-54768750D03*
%TO.P,RV4,2*%
%TO.N,POT3*%
X111006250Y-44768750D03*
%TO.P,RV4,3*%
%TO.N,+5V*%
X108506250Y-54768750D03*
%TD*%
%TO.P,RV3,1*%
%TO.N,GND*%
X102393750Y-54768750D03*
%TO.P,RV3,2*%
%TO.N,POT2*%
X99893750Y-44768750D03*
%TO.P,RV3,3*%
%TO.N,+5V*%
X97393750Y-54768750D03*
%TD*%
%TO.P,RV2,1*%
%TO.N,GND*%
X91281250Y-54768750D03*
%TO.P,RV2,2*%
%TO.N,POT1*%
X88781250Y-44768750D03*
%TO.P,RV2,3*%
%TO.N,+5V*%
X86281250Y-54768750D03*
%TD*%
%TO.P,RV1,1*%
%TO.N,GND*%
X80168750Y-54768750D03*
%TO.P,RV1,2*%
%TO.N,POT0*%
X77668750Y-44768750D03*
%TO.P,RV1,3*%
%TO.N,+5V*%
X75168750Y-54768750D03*
%TD*%
%TO.P,R1,2*%
%TO.N,Net-(D26-Pad4)*%
%TA.AperFunction,SMDPad,CuDef*%
G36*
G01*
X121681250Y-76568750D02*
X121206250Y-76568750D01*
G75*
G02*
X120968750Y-76331250I0J237500D01*
G01*
X120968750Y-75831250D01*
G75*
G02*
X121206250Y-75593750I237500J0D01*
G01*
X121681250Y-75593750D01*
G75*
G02*
X121918750Y-75831250I0J-237500D01*
G01*
X121918750Y-76331250D01*
G75*
G02*
X121681250Y-76568750I-237500J0D01*
G01*
G37*
%TD.AperFunction*%
%TO.P,R1,1*%
%TO.N,LED_DATA*%
%TA.AperFunction,SMDPad,CuDef*%
G36*
G01*
X121681250Y-78393750D02*
X121206250Y-78393750D01*
G75*
G02*
X120968750Y-78156250I0J237500D01*
G01*
X120968750Y-77656250D01*
G75*
G02*
X121206250Y-77418750I237500J0D01*
G01*
X121681250Y-77418750D01*
G75*
G02*
X121918750Y-77656250I0J-237500D01*
G01*
X121918750Y-78156250D01*
G75*
G02*
X121681250Y-78393750I-237500J0D01*
G01*
G37*
%TD.AperFunction*%
%TD*%
D15*
%TO.P,D26,1*%
%TO.N,+5V*%
X126275000Y-73831250D03*
%TO.P,D26,2*%
%TO.N,Net-(D26-Pad2)*%
X126275000Y-70631250D03*
%TO.P,D26,4*%
%TO.N,Net-(D26-Pad4)*%
X121375000Y-73831250D03*
%TO.P,D26,3*%
%TO.N,GND*%
X121375000Y-70631250D03*
%TD*%
%TO.P,C2,2*%
%TO.N,GND*%
%TA.AperFunction,SMDPad,CuDef*%
G36*
G01*
X125087500Y-75962500D02*
X125087500Y-76437500D01*
G75*
G02*
X124850000Y-76675000I-237500J0D01*
G01*
X124250000Y-76675000D01*
G75*
G02*
X124012500Y-76437500I0J237500D01*
G01*
X124012500Y-75962500D01*
G75*
G02*
X124250000Y-75725000I237500J0D01*
G01*
X124850000Y-75725000D01*
G75*
G02*
X125087500Y-75962500I0J-237500D01*
G01*
G37*
%TD.AperFunction*%
%TO.P,C2,1*%
%TO.N,+5V*%
%TA.AperFunction,SMDPad,CuDef*%
G36*
G01*
X126812500Y-75962500D02*
X126812500Y-76437500D01*
G75*
G02*
X126575000Y-76675000I-237500J0D01*
G01*
X125975000Y-76675000D01*
G75*
G02*
X125737500Y-76437500I0J237500D01*
G01*
X125737500Y-75962500D01*
G75*
G02*
X125975000Y-75725000I237500J0D01*
G01*
X126575000Y-75725000D01*
G75*
G02*
X126812500Y-75962500I0J-237500D01*
G01*
G37*
%TD.AperFunction*%
%TD*%
D16*
%TO.N,+5V*%
X126206250Y-72231250D03*
%TO.N,LED_DATA*%
X118268750Y-77787500D03*
%TD*%
D17*
%TO.N,GND*%
X121375000Y-70871250D02*
X121375000Y-70631250D01*
X124550000Y-73806250D02*
X121375000Y-70631250D01*
X124550000Y-76200000D02*
X124550000Y-73806250D01*
X124618750Y-67387500D02*
X121375000Y-70631250D01*
X124618750Y-54768750D02*
X124618750Y-67387500D01*
%TO.N,+5V*%
X126206250Y-73900000D02*
X126275000Y-73831250D01*
X126275000Y-73831250D02*
X126275000Y-76200000D01*
D18*
%TO.N,Net-(D26-Pad4)*%
X121375000Y-73831250D02*
X121456250Y-73831250D01*
X121456250Y-73831250D02*
X121443750Y-73843750D01*
X121443750Y-73900000D02*
X121375000Y-73831250D01*
X121443750Y-76081250D02*
X121443750Y-73900000D01*
%TO.N,LED_DATA*%
X121325000Y-77787500D02*
X121443750Y-77906250D01*
X118268750Y-77787500D02*
X121325000Y-77787500D01*
%TO.N,POT0*%
X77668750Y-54484312D02*
X77668750Y-44768750D01*
X73256812Y-58896250D02*
X77668750Y-54484312D01*
X67945000Y-58896250D02*
X73256812Y-58896250D01*
%TO.N,POT1*%
X88781250Y-54484312D02*
X88781250Y-44768750D01*
X81829312Y-61436250D02*
X88781250Y-54484312D01*
X67945000Y-61436250D02*
X81829312Y-61436250D01*
%TO.N,POT2*%
X99893750Y-54484312D02*
X99893750Y-44768750D01*
X90401812Y-63976250D02*
X99893750Y-54484312D01*
X67945000Y-63976250D02*
X90401812Y-63976250D01*
%TO.N,POT3*%
X111006250Y-54484312D02*
X111006250Y-44768750D01*
X98974312Y-66516250D02*
X111006250Y-54484312D01*
X67945000Y-66516250D02*
X98974312Y-66516250D01*
%TO.N,POT4*%
X122118750Y-54484312D02*
X122118750Y-44768750D01*
X99926812Y-76676250D02*
X122118750Y-54484312D01*
X67945000Y-76676250D02*
X99926812Y-76676250D01*
%TO.N,COL0*%
X38258750Y-86360000D02*
X38258750Y-162560000D01*
X52705000Y-66516250D02*
X48418750Y-70802500D01*
X48418750Y-76200000D02*
X38258750Y-86360000D01*
X48418750Y-70802500D02*
X48418750Y-76200000D01*
%TO.N,COL1*%
X57308750Y-86360000D02*
X57150000Y-86518750D01*
X57308750Y-86677500D02*
X57308750Y-162560000D01*
X57150000Y-86518750D02*
X57308750Y-86677500D01*
X49098230Y-72663020D02*
X49098230Y-80848230D01*
X52705000Y-69056250D02*
X49098230Y-72663020D01*
X54610000Y-86360000D02*
X57308750Y-86360000D01*
X49098230Y-80848230D02*
X54610000Y-86360000D01*
%TO.N,COL2*%
X76358750Y-86360000D02*
X76835000Y-86360000D01*
X76358750Y-86836250D02*
X76358750Y-162560000D01*
X76835000Y-86360000D02*
X76358750Y-86836250D01*
X49552240Y-74749010D02*
X49552240Y-80508490D01*
X52705000Y-71596250D02*
X49552240Y-74749010D01*
X72391749Y-82392999D02*
X76358750Y-86360000D01*
X51436749Y-82392999D02*
X72391749Y-82392999D01*
X49552240Y-80508490D02*
X51436749Y-82392999D01*
%TO.N,COL3*%
X95408750Y-86373750D02*
X95408750Y-162560000D01*
X52705000Y-74136250D02*
X50006250Y-76835000D01*
X50006250Y-76835000D02*
X50006250Y-80168750D01*
X50006250Y-80168750D02*
X51593750Y-81756250D01*
X90791250Y-81756250D02*
X95408750Y-86373750D01*
X51593750Y-81756250D02*
X90791250Y-81756250D01*
%TO.N,COL4*%
X114458750Y-86360000D02*
X114458750Y-162560000D01*
X52705000Y-76676250D02*
X50800000Y-78581250D01*
X50800000Y-78581250D02*
X50800000Y-80168750D01*
X50800000Y-80168750D02*
X51593750Y-80962500D01*
X109061250Y-80962500D02*
X114458750Y-86360000D01*
X51593750Y-80962500D02*
X109061250Y-80962500D01*
%TD*%
M02*
