M48
; DRILL file {KiCad (5.1.8)-1} date 11/22/20 17:19:52
; FORMAT={-:-/ absolute / inch / decimal}
; #@! TF.CreationDate,2020-11-22T17:19:52-05:00
; #@! TF.GenerationSoftware,Kicad,Pcbnew,(5.1.8)-1
; #@! TF.FileFunction,NonPlated,1,2,NPTH
FMAT,2
INCH
T1C0.1575
%
G90
G05
T1
X3.1562Y-5.0
X1.6562Y-5.0
X3.9062Y-4.25
X4.6562Y-6.5
X2.4062Y-5.75
X3.9062Y-6.5
X3.1562Y-3.5
X1.6562Y-3.5
X3.9062Y-3.5005
X3.1562Y-5.75
X2.4062Y-5.0
X1.6562Y-4.25
X1.6562Y-5.75
X4.6562Y-5.75
X3.1562Y-4.25
X2.4062Y-3.5
X4.6562Y-3.5
X1.6562Y-6.5
X2.4062Y-4.25
X3.1562Y-6.5
X3.9062Y-5.0
X3.9062Y-5.75
X2.4062Y-6.5
X4.6562Y-4.25
X4.6562Y-5.0
T0
M30
