M48
; DRILL file {KiCad (5.1.8)-1} date 11/22/20 17:19:52
; FORMAT={-:-/ absolute / inch / decimal}
; #@! TF.CreationDate,2020-11-22T17:19:52-05:00
; #@! TF.GenerationSoftware,Kicad,Pcbnew,(5.1.8)-1
; #@! TF.FileFunction,Plated,1,2,PTH
FMAT,2
INCH
T1C0.0157
T2C0.0433
T3C0.0512
T4C0.0591
T5C0.1181
%
G90
G05
T1
X4.6562Y-3.0625
X4.9688Y-2.8438
T2
X2.075Y-1.9187
X2.075Y-2.0187
X2.075Y-2.1187
X2.075Y-2.2188
X2.075Y-2.3188
X2.075Y-2.4187
X2.075Y-2.5187
X2.075Y-2.6187
X2.075Y-2.7188
X2.075Y-2.8188
X2.075Y-2.9187
X2.075Y-3.0187
X2.675Y-1.9187
X2.675Y-2.0187
X2.675Y-2.1187
X2.675Y-2.2188
X2.675Y-2.3188
X2.675Y-2.4187
X2.675Y-2.5187
X2.675Y-2.6187
X2.675Y-2.7188
X2.675Y-2.8188
X2.675Y-2.9187
X2.675Y-3.0187
T3
X3.8344Y-2.1562
X3.9328Y-1.7625
X4.0312Y-2.1562
X3.3969Y-2.1562
X3.4953Y-1.7625
X3.5938Y-2.1562
X2.9594Y-2.1562
X3.0578Y-1.7625
X3.1562Y-2.1562
X4.2719Y-2.1562
X4.3703Y-1.7625
X4.4688Y-2.1562
X4.7094Y-2.1562
X4.8078Y-1.7625
X4.9062Y-2.1562
T4
X2.2563Y-4.9
X2.5063Y-4.8
X1.5062Y-4.15
X1.7562Y-4.05
X1.5062Y-5.65
X1.7562Y-5.55
X4.5062Y-5.65
X4.7562Y-5.55
X3.0063Y-4.15
X3.2563Y-4.05
X2.2563Y-3.4
X2.5063Y-3.3
X4.5062Y-3.4
X4.7562Y-3.3
X3.0063Y-4.9
X3.2563Y-4.8
X1.5062Y-6.4
X1.7562Y-6.3
X2.2563Y-4.15
X2.5063Y-4.05
X3.0063Y-6.4
X3.2563Y-6.3
X3.7563Y-4.9
X4.0062Y-4.8
X3.7563Y-5.65
X4.0062Y-5.55
X2.2563Y-6.4
X2.5063Y-6.3
X4.5062Y-4.15
X4.7562Y-4.05
X4.5062Y-4.9
X4.7562Y-4.8
X1.5062Y-4.9
X1.7562Y-4.8
X3.7563Y-4.15
X4.0062Y-4.05
X4.5062Y-6.4
X4.7562Y-6.3
X2.2563Y-5.65
X2.5063Y-5.55
X3.7563Y-6.4
X4.0062Y-6.3
X3.0063Y-3.4
X3.2563Y-3.3
X1.5062Y-3.4
X1.7562Y-3.3
X3.7563Y-3.4005
X4.0062Y-3.3005
X3.0063Y-5.65
X3.2563Y-5.55
T5
X4.9375Y-7.0
X1.375Y-7.0
X1.4688Y-1.9062
T0
M30
