%TF.GenerationSoftware,KiCad,Pcbnew,(5.1.8)-1*%
%TF.CreationDate,2020-11-22T17:19:48-05:00*%
%TF.ProjectId,macro_keyboard_pcb,6d616372-6f5f-46b6-9579-626f6172645f,rev?*%
%TF.SameCoordinates,Original*%
%TF.FileFunction,Soldermask,Top*%
%TF.FilePolarity,Negative*%
%FSLAX46Y46*%
G04 Gerber Fmt 4.6, Leading zero omitted, Abs format (unit mm)*
G04 Created by KiCad (PCBNEW (5.1.8)-1) date 2020-11-22 17:19:48*
%MOMM*%
%LPD*%
G01*
G04 APERTURE LIST*
%ADD10C,4.000000*%
%ADD11R,1.600000X1.600000*%
%ADD12C,1.600000*%
%ADD13C,2.200000*%
%ADD14C,2.340000*%
%ADD15R,1.500000X1.000000*%
G04 APERTURE END LIST*
D10*
%TO.C, *%
X37306250Y-48418750D03*
%TD*%
%TO.C, *%
X125412500Y-177800000D03*
%TD*%
%TO.C, *%
X34925000Y-177800000D03*
%TD*%
D11*
%TO.C,U1*%
X52705000Y-48736250D03*
D12*
X52705000Y-51276250D03*
X52705000Y-53816250D03*
X52705000Y-56356250D03*
X52705000Y-58896250D03*
X52705000Y-61436250D03*
X52705000Y-63976250D03*
X52705000Y-66516250D03*
X52705000Y-69056250D03*
X52705000Y-71596250D03*
X52705000Y-74136250D03*
X52705000Y-76676250D03*
X67945000Y-76676250D03*
X67945000Y-74136250D03*
X67945000Y-71596250D03*
X67945000Y-69056250D03*
X67945000Y-66516250D03*
X67945000Y-63976250D03*
X67945000Y-61436250D03*
X67945000Y-58896250D03*
X67945000Y-56356250D03*
X67945000Y-53816250D03*
X67945000Y-51276250D03*
X67945000Y-48736250D03*
%TD*%
D13*
%TO.C,SW25*%
X120808750Y-160020000D03*
X114458750Y-162560000D03*
D10*
X118268750Y-165100000D03*
%TD*%
D13*
%TO.C,SW24*%
X120808750Y-140970000D03*
X114458750Y-143510000D03*
D10*
X118268750Y-146050000D03*
%TD*%
D13*
%TO.C,SW23*%
X120808750Y-121920000D03*
X114458750Y-124460000D03*
D10*
X118268750Y-127000000D03*
%TD*%
D13*
%TO.C,SW22*%
X120808750Y-102870000D03*
X114458750Y-105410000D03*
D10*
X118268750Y-107950000D03*
%TD*%
D13*
%TO.C,SW21*%
X120808750Y-83820000D03*
X114458750Y-86360000D03*
D10*
X118268750Y-88900000D03*
%TD*%
D13*
%TO.C,SW20*%
X101758750Y-160020000D03*
X95408750Y-162560000D03*
D10*
X99218750Y-165100000D03*
%TD*%
D13*
%TO.C,SW19*%
X101758750Y-140970000D03*
X95408750Y-143510000D03*
D10*
X99218750Y-146050000D03*
%TD*%
D13*
%TO.C,SW18*%
X101758750Y-121920000D03*
X95408750Y-124460000D03*
D10*
X99218750Y-127000000D03*
%TD*%
D13*
%TO.C,SW17*%
X101758750Y-102870000D03*
X95408750Y-105410000D03*
D10*
X99218750Y-107950000D03*
%TD*%
D13*
%TO.C,SW16*%
X101758750Y-83833750D03*
X95408750Y-86373750D03*
D10*
X99218750Y-88913750D03*
%TD*%
D13*
%TO.C,SW15*%
X82708750Y-160020000D03*
X76358750Y-162560000D03*
D10*
X80168750Y-165100000D03*
%TD*%
D13*
%TO.C,SW14*%
X82708750Y-140970000D03*
X76358750Y-143510000D03*
D10*
X80168750Y-146050000D03*
%TD*%
D13*
%TO.C,SW13*%
X82708750Y-121920000D03*
X76358750Y-124460000D03*
D10*
X80168750Y-127000000D03*
%TD*%
D13*
%TO.C,SW12*%
X82708750Y-102870000D03*
X76358750Y-105410000D03*
D10*
X80168750Y-107950000D03*
%TD*%
D13*
%TO.C,SW11*%
X82708750Y-83820000D03*
X76358750Y-86360000D03*
D10*
X80168750Y-88900000D03*
%TD*%
D13*
%TO.C,SW10*%
X63658750Y-160020000D03*
X57308750Y-162560000D03*
D10*
X61118750Y-165100000D03*
%TD*%
D13*
%TO.C,SW9*%
X63658750Y-140970000D03*
X57308750Y-143510000D03*
D10*
X61118750Y-146050000D03*
%TD*%
D13*
%TO.C,SW8*%
X63658750Y-121920000D03*
X57308750Y-124460000D03*
D10*
X61118750Y-127000000D03*
%TD*%
D13*
%TO.C,SW7*%
X63658750Y-102870000D03*
X57308750Y-105410000D03*
D10*
X61118750Y-107950000D03*
%TD*%
D13*
%TO.C,SW6*%
X63658750Y-83820000D03*
X57308750Y-86360000D03*
D10*
X61118750Y-88900000D03*
%TD*%
D13*
%TO.C,SW5*%
X44608750Y-160020000D03*
X38258750Y-162560000D03*
D10*
X42068750Y-165100000D03*
%TD*%
D13*
%TO.C,SW4*%
X44608750Y-140970000D03*
X38258750Y-143510000D03*
D10*
X42068750Y-146050000D03*
%TD*%
D13*
%TO.C,SW3*%
X44608750Y-121920000D03*
X38258750Y-124460000D03*
D10*
X42068750Y-127000000D03*
%TD*%
D13*
%TO.C,SW2*%
X44608750Y-102870000D03*
X38258750Y-105410000D03*
D10*
X42068750Y-107950000D03*
%TD*%
D13*
%TO.C,SW1*%
X44608750Y-83820000D03*
X38258750Y-86360000D03*
D10*
X42068750Y-88900000D03*
%TD*%
D14*
%TO.C,RV5*%
X124618750Y-54768750D03*
X122118750Y-44768750D03*
X119618750Y-54768750D03*
%TD*%
%TO.C,RV4*%
X113506250Y-54768750D03*
X111006250Y-44768750D03*
X108506250Y-54768750D03*
%TD*%
%TO.C,RV3*%
X102393750Y-54768750D03*
X99893750Y-44768750D03*
X97393750Y-54768750D03*
%TD*%
%TO.C,RV2*%
X91281250Y-54768750D03*
X88781250Y-44768750D03*
X86281250Y-54768750D03*
%TD*%
%TO.C,RV1*%
X80168750Y-54768750D03*
X77668750Y-44768750D03*
X75168750Y-54768750D03*
%TD*%
%TO.C,R1*%
G36*
G01*
X121681250Y-76568750D02*
X121206250Y-76568750D01*
G75*
G02*
X120968750Y-76331250I0J237500D01*
G01*
X120968750Y-75831250D01*
G75*
G02*
X121206250Y-75593750I237500J0D01*
G01*
X121681250Y-75593750D01*
G75*
G02*
X121918750Y-75831250I0J-237500D01*
G01*
X121918750Y-76331250D01*
G75*
G02*
X121681250Y-76568750I-237500J0D01*
G01*
G37*
G36*
G01*
X121681250Y-78393750D02*
X121206250Y-78393750D01*
G75*
G02*
X120968750Y-78156250I0J237500D01*
G01*
X120968750Y-77656250D01*
G75*
G02*
X121206250Y-77418750I237500J0D01*
G01*
X121681250Y-77418750D01*
G75*
G02*
X121918750Y-77656250I0J-237500D01*
G01*
X121918750Y-78156250D01*
G75*
G02*
X121681250Y-78393750I-237500J0D01*
G01*
G37*
%TD*%
D15*
%TO.C,D26*%
X126275000Y-73831250D03*
X126275000Y-70631250D03*
X121375000Y-73831250D03*
X121375000Y-70631250D03*
%TD*%
%TO.C,C2*%
G36*
G01*
X125087500Y-75962500D02*
X125087500Y-76437500D01*
G75*
G02*
X124850000Y-76675000I-237500J0D01*
G01*
X124250000Y-76675000D01*
G75*
G02*
X124012500Y-76437500I0J237500D01*
G01*
X124012500Y-75962500D01*
G75*
G02*
X124250000Y-75725000I237500J0D01*
G01*
X124850000Y-75725000D01*
G75*
G02*
X125087500Y-75962500I0J-237500D01*
G01*
G37*
G36*
G01*
X126812500Y-75962500D02*
X126812500Y-76437500D01*
G75*
G02*
X126575000Y-76675000I-237500J0D01*
G01*
X125975000Y-76675000D01*
G75*
G02*
X125737500Y-76437500I0J237500D01*
G01*
X125737500Y-75962500D01*
G75*
G02*
X125975000Y-75725000I237500J0D01*
G01*
X126575000Y-75725000D01*
G75*
G02*
X126812500Y-75962500I0J-237500D01*
G01*
G37*
%TD*%
M02*
